<?xml version="1.0" encoding="UTF-8"?><svg id="a" xmlns="http://www.w3.org/2000/svg" xmlns:xlink="http://www.w3.org/1999/xlink" viewBox="0 0 1126.35 106.2"><defs><linearGradient id="b" x1="26.36" y1="46.33" x2="1120.42" y2="46.33" gradientUnits="userSpaceOnUse"><stop offset="0" stop-color="#0b6aea"/><stop offset=".15" stop-color="#9b51e0"/><stop offset=".31" stop-color="#eb5757"/><stop offset=".44" stop-color="#b38e74"/><stop offset=".58" stop-color="#5f9261"/><stop offset=".72" stop-color="#219653"/><stop offset=".86" stop-color="#f2994a"/><stop offset="1" stop-color="#7107d4"/></linearGradient><linearGradient id="c" y1="41.33" y2="41.33" xlink:href="#b"/><linearGradient id="d" y1="53.1" y2="53.1" xlink:href="#b"/><linearGradient id="e" y1="41.33" y2="41.33" xlink:href="#b"/><linearGradient id="f" y1="53.1" y2="53.1" xlink:href="#b"/><linearGradient id="g" y1="41.33" y2="41.33" xlink:href="#b"/><linearGradient id="h" y1="53.1" y2="53.1" xlink:href="#b"/><linearGradient id="i" y1="53.1" y2="53.1" xlink:href="#b"/><linearGradient id="j" y1="53.1" y2="53.1" xlink:href="#b"/><linearGradient id="k" y1="46.33" y2="46.33" xlink:href="#b"/><linearGradient id="l" y1="53.1" y2="53.1" xlink:href="#b"/><linearGradient id="m" y1="53.1" y2="53.1" xlink:href="#b"/><linearGradient id="n" y1="53.1" y2="53.1" xlink:href="#b"/><linearGradient id="o" y1="53.1" y2="53.1" xlink:href="#b"/><linearGradient id="p" y1="53.1" y2="53.1" xlink:href="#b"/><linearGradient id="q" y1="53.1" y2="53.1" xlink:href="#b"/></defs><path d="m48.39,64.04h27.37l-13.68-35.42-13.68,35.42Zm8.75-6l4.93-12.77,4.93,12.77h-9.87Z" fill="url(#b)"/><path d="m169.4,27.1h-14.77v28.45h14.77c10.26,0,16.14-5.18,16.14-14.22s-5.88-14.22-16.14-14.22Zm0,22.45h-8.77v-16.45h8.77c9.09,0,10.14,4.69,10.14,8.22s-1.05,8.22-10.14,8.22Z" fill="url(#c)"/><path d="m171.45,2.19h-49.13v96.37L80.19,2.19h-35.68L0,104.01h39.5l6.43-16.7h32.29l6.43,16.7h75.97v-23.54h10.83c28.35,0,46.67-15.36,46.67-39.14S199.8,2.19,171.45,2.19Zm-82.67,95.82l-6.43-16.7h-40.53l-6.43,16.7H9.17L48.44,8.19h27.83l39.27,89.82h-26.76Zm82.67-23.54h-16.83v23.54h-26.31V8.19h43.13c25.08,0,40.67,12.7,40.67,33.14s-15.58,33.14-40.67,33.14Z" fill="url(#d)"/><path d="m269.73,27.1h-14.77v28.45h14.77c10.26,0,16.14-5.18,16.14-14.22s-5.88-14.22-16.14-14.22Zm0,22.45h-8.77v-16.45h8.77c9.09,0,10.14,4.69,10.14,8.22s-1.05,8.22-10.14,8.22Z" fill="url(#e)"/><path d="m271.79,2.19h-49.13v101.82h38.31v-23.54h10.83c28.35,0,46.67-15.36,46.67-39.14S300.14,2.19,271.79,2.19Zm0,72.28h-16.83v23.54h-26.31V8.19h43.13c25.08,0,40.67,12.7,40.67,33.14s-15.58,33.14-40.67,33.14Z" fill="url(#f)"/><path d="m370.07,27.1h-14.77v28.45h14.77c10.26,0,16.14-5.18,16.14-14.22s-5.88-14.22-16.14-14.22Zm0,22.45h-8.77v-16.45h8.77c9.09,0,10.14,4.69,10.14,8.22s-1.05,8.22-10.14,8.22Z" fill="url(#g)"/><path d="m418.79,41.33c0-23.78-18.32-39.14-46.67-39.14h-49.13v101.82h38.31v-24.09h4.17l16.29,24.09h41.76l-21.48-31.56c10.84-6.73,16.75-17.66,16.75-31.12Zm-6.62,56.68h-27.23l-16.29-24.09h-13.35v24.09h-26.31V8.19h43.13c25.08,0,40.67,12.7,40.67,33.14,0,12.45-5.68,21.94-16.44,27.45l-3.02,1.55,18.84,27.69Z" fill="url(#h)"/><path d="m462.73,67.05h40.52v-29.27h-40.52v-5.22h46.13V2.19h-83.89v101.82h85.67v-30.37h-47.91v-6.59Zm41.91,12.59v18.37h-73.67V8.19h71.89v18.37h-46.13v17.22h40.52v17.27h-40.52v18.59h47.91Z" fill="url(#i)"/><path d="m571.29,32.15c7.26,0,13.16,3.2,18.59,10.08l1.97,2.5,24.85-22.18-1.69-2.21c-10.2-13.31-25.89-20.34-45.36-20.34-32.67,0-56.39,22.33-56.39,53.1s23.71,53.1,56.39,53.1c19.48,0,35.16-7.03,45.36-20.34l1.69-2.21-24.85-22.18-1.97,2.5c-5.42,6.88-11.33,10.08-18.59,10.08-11.81,0-19.45-8.23-19.45-20.96s7.63-20.96,19.45-20.96Zm-25.45,20.96c0,16.12,10.23,26.96,25.45,26.96,8.18,0,15.16-3.26,21.24-9.94l15.96,14.24c-9.04,10.37-22.41,15.84-38.84,15.84-29.2,0-50.39-19.81-50.39-47.1s21.19-47.1,50.39-47.1c16.44,0,29.8,5.46,38.84,15.84l-15.96,14.24c-6.09-6.68-13.06-9.94-21.24-9.94-15.22,0-25.45,10.83-25.45,26.96Z" fill="url(#j)"/><path d="m703.25,64.04h27.37l-13.68-35.42-13.68,35.42Zm8.75-6l4.93-12.77,4.93,12.77h-9.87Z" fill="url(#k)"/><path d="m699.37,2.19l-42.12,96.36V2.19h-38.31v101.82h75.42l6.43-16.7h32.29l6.43,16.7h40.05L735.05,2.19h-35.68Zm-48.12,95.82h-26.31V8.19h26.31v89.82Zm92.39,0l-6.43-16.7h-40.53l-6.43,16.7h-26.21l39.26-89.82h27.83l39.26,89.82h-26.75Z" fill="url(#l)"/><path d="m765.13,33.24h28.06v70.77h38.3V33.24h28.06V2.19h-94.43v31.05Zm6-25.05h82.43v19.05h-28.06v70.77h-26.3V27.24h-28.06V8.19Z" fill="url(#m)"/><path d="m861.91,104.01h38.3V2.19h-38.3v101.82Zm6-95.82h26.3v89.82h-26.3V8.19Z" fill="url(#n)"/><path d="m963.06,0c-33.07,0-57.07,22.33-57.07,53.1s24,53.1,57.07,53.1,57.07-22.33,57.07-53.1S996.13,0,963.06,0Zm0,100.2c-29.59,0-51.07-19.81-51.07-47.1s21.48-47.1,51.07-47.1,51.07,19.81,51.07,47.1-21.48,47.1-51.07,47.1Z" fill="url(#o)"/><path d="m963.06,26.15c-14.42,0-24.49,11.08-24.49,26.96s10.07,26.96,24.49,26.96,24.49-11.08,24.49-26.96-10.07-26.96-24.49-26.96Zm0,47.91c-11.06,0-18.49-8.42-18.49-20.96s7.43-20.96,18.49-20.96,18.49,8.42,18.49,20.96-7.43,20.96-18.49,20.96Z" fill="url(#p)"/><path d="m1088.87,2.19v38.27l-32.01-38.27h-30.96v101.82h37.48v-38.27l32.01,38.27h30.96V2.19h-37.48Zm31.48,95.82h-22.15l-40.81-48.79v48.79h-25.48V8.19h22.15l40.81,48.79V8.19h25.48v89.82Z" fill="url(#q)"/></svg>