<?xml version="1.0" encoding="utf-8"?>
<!-- Generator: Adobe Illustrator 27.1.1, SVG Export Plug-In . SVG Version: 6.00 Build 0)  -->
<svg version="1.1" id="Layer_1" xmlns="http://www.w3.org/2000/svg"
	xmlns:xlink="http://www.w3.org/1999/xlink" x="0px" y="0px"
	viewBox="0 0 216 216" style="enable-background:new 0 0 216 216;" xml:space="preserve">
<style type="text/css">
	.st0{fill:#231F20;}
</style>
<path class="st0" d="M190.92,70.24c-7.22,1.06-14.42,2.18-21.63,3.28c-13.93,2.13-27.85,4.28-41.77,6.43
	c-16.15,2.5-32.29,5.06-48.43,7.62c-14.08,2.24-28.16,4.49-42.22,6.83c-4.85,0.81-9.67,1.64-14.48,2.65
	c-0.87,0.18-1.75,0.34-2.62,0.55c-0.18,0.04-0.38,0.06-0.56,0.11c-0.29,0.09-0.49,0.15-0.61,0.2c-0.36,0.07-0.71,0.21-1.06,0.31
	c-0.31,0.09-0.61,0.17-0.92,0.27c-0.36,0.11-0.46,0.06-0.89,0.31c-0.05,0.03-0.21,0.15-0.38,0.29c-0.35,0.1-0.78,0.45-1.08,0.62
	c-0.23,0.14-0.46,0.27-0.69,0.42c-0.02,0.01-0.03,0.03-0.05,0.04c-0.01,0-0.02,0.01-0.03,0.01c-1.03,0.4-1.76,1.5-1.12,2.56
	c0.03,0.06,0.07,0.11,0.11,0.15c-0.42-0.42-0.09-0.05,0.2,0.35c0.14,0.19,0.31,0.33,0.48,0.5c0.33,0.32,0.66,0.59,1.03,0.87
	c1.51,1.11,3.11,2.01,4.71,2.98c3.29,1.99,6.44,4.29,9.51,6.6c2.81,2.12,5.88,3.76,8.77,5.75c2.81,1.93,5.59,3.99,8.71,5.39
	c0.01,0.01,0.02,0.01,0.04,0.02c0.02,0.01,0.04,0.02,0.06,0.03c0.16,0.07,0.33,0.14,0.49,0.21c0.04,0.25,0.14,0.99,0.04,0.27
	c0.12,0.9,0.45,1.74,0.75,2.59c1.35,3.88,2.86,7.68,4.42,11.48c3.64,8.86,7.47,17.65,11.39,26.38c1.08,2.4,2.15,4.8,3.24,7.2
	c0.97,2.13,3.53,1.99,5.03,0.7c1.78-0.5,3.56-1.8,4.87-2.8c3.01-2.29,6.01-4.6,8.92-7.01c2.81-2.34,5.62-4.7,8.43-7.04
	c1.07-0.89,2.15-1.79,3.23-2.67c0.24-0.19,0.48-0.38,0.72-0.57c0.03,0.01,0.05,0.03,0.08,0.04c-0.01,0.01-0.01,0.01,0,0
	c2.12,1.21,4.23,2.42,6.33,3.66c3.88,2.29,7.66,4.88,11.61,7.08c0.82,1.71,2.78,2.83,4.83,1.48c1.11-0.73,1.9-1.93,2.74-2.93
	c1.8-2.17,3.59-4.34,5.38-6.52c5.87-7.14,11.71-14.29,17.56-21.45c13.18-16.14,26.09-32.49,39.15-48.72
	c2.17-2.69,4.33-5.39,6.47-8.1c1.08-1.37,2.61-2.79,3.17-4.49C195.71,71.61,193.14,69.92,190.92,70.24z M14.84,99.66
	C14.84,99.66,14.84,99.66,14.84,99.66C14.84,99.66,14.84,99.66,14.84,99.66z M28.67,106.99c-1.74-1.16-3.47-2.44-5.3-3.45
	c-0.45-0.25-0.91-0.48-1.38-0.7c1.72-0.25,3.45-0.5,5.18-0.74c0.53-0.07,1.06-0.15,1.58-0.22c0.02,0,0.03,0,0.05-0.01
	c0.16-0.02,0.7-0.09,0.77-0.1c0.35-0.05,0.7-0.12,1.05-0.18c1.26-0.21,2.52-0.42,3.78-0.63c13.51-2.23,27.03-4.36,40.55-6.48
	c16.13-2.53,32.26-5.02,48.39-7.5c10.18-1.56,20.36-3.13,30.54-4.7c-5.56,1.92-11.12,3.85-16.67,5.78
	c-12.83,4.45-25.65,8.92-38.47,13.41c-10.87,3.81-21.74,7.62-32.59,11.49c-3.42,1.22-6.8,2.53-10.18,3.84
	c-1.16,0.45-2.32,0.9-3.44,1.45c-0.26,0.13-0.55,0.24-0.8,0.4c0,0,0,0-0.01,0c-0.78,0.26-1.59,0.55-2.31,0.92
	c-0.21,0.11-0.43,0.22-0.64,0.35C41.78,116.11,35.29,111.4,28.67,106.99z M52.94,127.99c-0.38-0.79-0.76-1.57-1.13-2.36
	c-0.16-0.35-0.31-0.72-0.49-1.06c-0.07-0.09-0.13-0.17-0.2-0.26c0.73-0.1,1.45-0.24,2.17-0.41c0.3-0.07,0.58-0.15,0.87-0.24
	c0.83-0.24,1.65-0.48,2.46-0.76c3.1-1.07,6.23-2.07,9.33-3.16c10.45-3.66,20.88-7.37,31.33-11.02c12.71-4.44,25.43-8.86,38.15-13.27
	c4.06-1.41,8.13-2.81,12.19-4.21c-10.2,4.93-20.4,9.88-30.58,14.84c-9.15,4.45-18.3,8.91-27.43,13.41
	c-6.22,3.07-12.54,6.06-18.47,9.66c-1.26,0.77-2.53,1.31-3.59,2.27c-0.77,0.31-1.55,1.18-1.65,1.93c-0.01,0.08-0.02,0.15-0.03,0.23
	c-0.04,0.26-0.05,0.53-0.04,0.79c-0.59,2.72,0.17,5.57,0.19,8.37c0.02,2.82,0.05,5.63,0.08,8.45c0.02,1.87,0.01,3.74-0.01,5.61
	C61.82,147.14,57.54,137.49,52.94,127.99z M81.05,159.49c-2.78,2.37-5.49,4.82-8.27,7.19c-0.12,0.1-0.24,0.21-0.36,0.31
	c-0.13-5-0.39-10-0.45-15c-0.03-2.84-0.07-5.68-0.09-8.51c-0.01-0.82,0.01-1.64-0.04-2.46c-0.02-0.32-0.05-0.64-0.09-0.95
	c1.93,1.18,4.12,2.07,6.01,3.05c4.46,2.31,8.8,4.87,13.2,7.31c0.12,0.07,0.25,0.14,0.37,0.21c-0.66,0.6-1.29,1.2-1.9,1.72
	C86.63,154.72,83.85,157.11,81.05,159.49z M125.33,149.66c-2.19,2.66-4.38,5.32-6.58,7.97c-0.17,0.21-0.35,0.42-0.52,0.63
	c-3.32-2.14-6.87-4.04-10.25-6.02c-4.4-2.57-8.85-5.06-13.31-7.51c-4.32-2.38-8.64-4.77-13.08-6.92c-2.2-1.06-4.42-2.09-6.65-3.07
	c-0.2-0.09-0.39-0.18-0.59-0.27c0.61-0.37,1.21-0.77,1.83-1.13c1.88-1.11,3.85-2.05,5.78-3.06c0.52-0.27,1.04-0.56,1.57-0.83
	c2.37-1.22,4.76-2.4,7.15-3.58c8.63-4.28,17.28-8.51,25.93-12.74c10.81-5.28,21.63-10.55,32.45-15.81
	c9.55-4.64,19.08-9.29,28.61-13.97c1.19-0.59,2.38-1.18,3.56-1.79c-5.55,6.88-11.22,13.67-16.88,20.48
	C151.23,117.81,138.36,133.81,125.33,149.66z"/>
</svg>