<?xml version="1.0" encoding="utf-8"?>
<!-- Generator: Adobe Illustrator 27.1.1, SVG Export Plug-In . SVG Version: 6.00 Build 0)  -->
<svg version="1.1" id="Layer_1" xmlns="http://www.w3.org/2000/svg" xmlns:xlink="http://www.w3.org/1999/xlink" x="0px" y="0px"
	 viewBox="0 0 216 216" style="enable-background:new 0 0 216 216;" xml:space="preserve">
<style type="text/css">
	.st0{fill:#333333;}
</style>
<path class="st0" d="M36.15,46.4c0.07,0.01,6.86,0.91,13.3,7.36c6.39,6.4,7.27,12.93,7.31,13.27c0.23,2.1,2,3.88,4.12,3.88
	c0.02,0,0.04,0,0.07,0c2.1,0,3.89-1.72,4.17-3.81c0.01-0.07,0.98-6.98,7.44-13.43c6.44-6.43,13.02-7.29,13.26-7.32
	c2.13-0.23,3.75-2,3.76-4.15c0.01-2.14-1.59-3.93-3.72-4.18c-0.07-0.01-6.9-0.93-13.37-7.4c-6.43-6.43-7.28-12.99-7.3-13.23
	c-0.22-2.12-1.99-3.68-4.12-3.68c-0.02,0-0.04,0-0.06,0c-2.1,0-3.89,1.49-4.17,3.59c-0.01,0.07-0.98,6.78-7.44,13.24
	c-6.46,6.45-13.27,7.45-13.31,7.46c-2.13,0.25-3.73,2.08-3.71,4.23C32.39,44.36,34.02,46.18,36.15,46.4z M55.34,36.5
	c2.41-2.41,4.23-4.86,5.61-7.16c1.37,2.3,3.19,4.76,5.59,7.16c2.42,2.42,4.9,4.25,7.22,5.64c-2.3,1.37-4.75,3.19-7.16,5.6
	c-2.4,2.4-4.22,4.84-5.61,7.13c-1.37-2.3-3.19-4.75-5.6-7.16c-2.41-2.41-4.88-4.23-7.2-5.61C50.5,40.72,52.95,38.89,55.34,36.5z"/>
<path class="st0" d="M199.97,178.57h-15.4v-77.38h15.4c2.32,0,4.21-1.88,4.21-4.21s-1.88-4.21-4.21-4.21h-19.35
	c-2.32,0-4.47,1.99-4.47,4.31v2.41c-11.78-4.29-20.71-9.9-28.59-14.93c-6.32-4.03-11.89-7.59-17.78-9.42l13.9-18.23
	c4.64-6.1,3.76-14.61-1.98-18.98c-5.74-4.37-14.18-2.96-18.82,3.14L99.75,71.48c-2.94,0.75-6.9,1.71-9.98,2.42
	c-15.57,3.61-31.66,7.34-36.96,16.05c-3.1,5.1-3.53,11.97-4.06,20.67c-0.51,8.26-1.27,18.33-4.3,28.45
	c-7.65,2.23-13.4,9.06-13.4,16.89c0,1.67,0.28,3.29,0.76,4.83L21.2,174.74c-3.68,4.83-5.15,18.81-5.51,22.98
	c-0.12,1.44,0.5,2.84,1.64,3.71c0.74,0.57,1.64,0.86,2.55,0.86c0.49,0,0.99-0.09,1.47-0.26c3.92-1.46,17-6.61,20.68-11.44
	l9.37-12.31l4.15,7.04c2.49,4.22,6.33,7.34,10.81,8.79c1.79,0.57,3.59,0.86,5.37,0.86c2.85,0,5.61-0.74,8.09-2.19
	c2.68-1.58,4.77-3.88,6.16-6.66c3.72,4.89,9.29,7.64,14.81,7.64c2.8,0,5.58-0.76,8.1-2.24c5.96-3.51,8.95-10.84,7.76-17.98h8.96
	c10.98,0,21.23,2.52,31.26,4.91c6.35,1.51,12.99,3.11,19.3,3.98v0.47c0,2.32,2.14,4.1,4.47,4.1h19.35c2.32,0,4.21-1.88,4.21-4.21
	C204.17,180.45,202.29,178.57,199.97,178.57z M129.59,46.17c1.8-2.37,5.02-3.07,7.04-1.53c2.02,1.54,2.2,4.83,0.4,7.2l-30.7,40.35
	l-7.44-5.66L129.59,46.17z M100.64,135.53c-0.34,0.94-3.33,2.66-12.19,2.66h-6.64l11.06-14.51
	C97.71,128.22,101.33,133.62,100.64,135.53z M71.24,138.19H59.49l34.3-45.03l7.44,5.64L71.24,138.19z M57.14,111.14
	c0.45-7.24,0.83-13.49,2.85-16.81c3.46-5.68,19.77-9.46,31.68-12.23c0,0,0.01,0,0.01,0l-36.51,47.98
	C56.39,123.12,56.8,116.68,57.14,111.14z M44.87,172.96l-5.17,6.79l-7.44-5.66l4.34-5.71C38.88,170.53,41.72,172.12,44.87,172.96z
	 M27.33,180.91l7.12,5.41c-1.77,1.39-5.46,3.34-9.54,5.16C25.57,187.06,26.46,182.98,27.33,180.91z M79.24,180.02
	c-0.48,2.42-1.79,4.37-3.7,5.5c-1.91,1.13-4.25,1.33-6.6,0.57c-2.52-0.81-4.71-2.66-6.15-5.1l-4.37-7.47h20.02l0.27,0.52
	C79.43,175.97,79.62,178.07,79.24,180.02z M104.61,184.26c-4.14,2.44-9.86,0.41-12.75-4.5l-3.66-6.23H108
	C109.28,178.15,107.91,182.31,104.61,184.26z M158.8,170.24c-10.5-2.5-21.23-5.14-33.2-5.14H49.79c-5.5,0-10.33-4.32-10.33-9.25
	c0-4.93,4.83-9.25,10.33-9.25h38.66c4.23,0,17.12,0.05,20.1-8.22c2.88-7.99-6.25-17.46-10.56-21.38l26.31-34.57
	c5.76,0.85,11.42,4.54,18.74,9.22c8.43,5.38,18.82,12,33.12,16.73v65.54C170.69,173.09,164.82,171.68,158.8,170.24z"/>
</svg>
