<?xml version="1.0" encoding="utf-8"?>
<!-- Generator: Adobe Illustrator 27.3.1, SVG Export Plug-In . SVG Version: 6.00 Build 0)  -->
<svg version="1.1" id="a" xmlns="http://www.w3.org/2000/svg" xmlns:xlink="http://www.w3.org/1999/xlink" x="0px" y="0px"
	 viewBox="0 0 1126.3 106.2" style="enable-background:new 0 0 1126.3 106.2;" xml:space="preserve">
<style type="text/css">
	.st0{fill:url(#SVGID_1_);}
	.st1{fill:url(#SVGID_00000056386653755386620210000004773241096614920087_);}
	.st2{fill:url(#SVGID_00000168809026206877580660000015615866762192050849_);}
	.st3{fill:url(#SVGID_00000004539689995879557530000013882905494421126543_);}
	.st4{fill:url(#SVGID_00000011028233512970316850000005670240605091121581_);}
	.st5{fill:url(#SVGID_00000010273231148313035740000003170296426483020959_);}
	.st6{fill:url(#SVGID_00000122714872625272548920000013463399999352457642_);}
	.st7{fill:url(#SVGID_00000023252180541565281590000008344703785305759651_);}
	.st8{fill:url(#SVGID_00000078752125494507653600000004711159359882674061_);}
	.st9{fill:url(#SVGID_00000085233727568138450000000010987912910171906444_);}
</style>
<g>
	<g>
		<linearGradient id="SVGID_1_" gradientUnits="userSpaceOnUse" x1="83" y1="53.5027" x2="1041.6815" y2="53.5027">
			<stop  offset="0" style="stop-color:#0B6AEA"/>
			<stop  offset="0.15" style="stop-color:#9B51E0"/>
			<stop  offset="0.31" style="stop-color:#EB5757"/>
			<stop  offset="0.44" style="stop-color:#B38E74"/>
			<stop  offset="0.58" style="stop-color:#5F9261"/>
			<stop  offset="0.72" style="stop-color:#219653"/>
			<stop  offset="0.86" style="stop-color:#F2994A"/>
			<stop  offset="1" style="stop-color:#7107D4"/>
		</linearGradient>
		<path class="st0" d="M170,104.7H84.1V2.4h84.1v29.7h-46.8v6.4h41.1v28.6h-41.1v7.8H170V104.7z M89.1,99.7H165V79.9h-48.7V62.1
			h41.1V43.5h-41.1V27.1h46.8V7.4H89.1V99.7z"/>
	</g>
	<g>
		
			<linearGradient id="SVGID_00000010272232826821485740000007670812902309383611_" gradientUnits="userSpaceOnUse" x1="83" y1="53.5027" x2="1041.6815" y2="53.5027">
			<stop  offset="0" style="stop-color:#0B6AEA"/>
			<stop  offset="0.15" style="stop-color:#9B51E0"/>
			<stop  offset="0.31" style="stop-color:#EB5757"/>
			<stop  offset="0.44" style="stop-color:#B38E74"/>
			<stop  offset="0.58" style="stop-color:#5F9261"/>
			<stop  offset="0.72" style="stop-color:#219653"/>
			<stop  offset="0.86" style="stop-color:#F2994A"/>
			<stop  offset="1" style="stop-color:#7107D4"/>
		</linearGradient>
		<path style="fill:url(#SVGID_00000010272232826821485740000007670812902309383611_);" d="M245.9,104.7h-35.6L167.1,2.4h40.8
			l21.6,52.8l22.1-52.8h37.7L245.9,104.7z M213.7,99.7h28.9l39-92.3h-26.8l-25.5,60.9L204.5,7.4h-29.9L213.7,99.7z"/>
	</g>
	<g>
		
			<linearGradient id="SVGID_00000104682308678119663830000017755234148102192804_" gradientUnits="userSpaceOnUse" x1="83" y1="53.5024" x2="1041.6815" y2="53.5024">
			<stop  offset="0" style="stop-color:#0B6AEA"/>
			<stop  offset="0.15" style="stop-color:#9B51E0"/>
			<stop  offset="0.31" style="stop-color:#EB5757"/>
			<stop  offset="0.44" style="stop-color:#B38E74"/>
			<stop  offset="0.58" style="stop-color:#5F9261"/>
			<stop  offset="0.72" style="stop-color:#219653"/>
			<stop  offset="0.86" style="stop-color:#F2994A"/>
			<stop  offset="1" style="stop-color:#7107D4"/>
		</linearGradient>
		<path style="fill:url(#SVGID_00000104682308678119663830000017755234148102192804_);" d="M336.2,106.9
			c-33.3,0-57.4-22.4-57.4-53.4s24.1-53.4,57.4-53.4c33.3,0,57.4,22.4,57.4,53.4S369.4,106.9,336.2,106.9z M336.2,5.1
			c-30.4,0-52.4,20.3-52.4,48.4c0,28,22,48.4,52.4,48.4s52.4-20.3,52.4-48.4C388.6,25.5,366.5,5.1,336.2,5.1z M336.2,80.3
			c-14.3,0-24.3-11-24.3-26.8c0-15.8,10-26.8,24.3-26.8c14.3,0,24.3,11,24.3,26.8C360.5,69.3,350.5,80.3,336.2,80.3z M336.2,31.7
			c-11.4,0-19.3,9-19.3,21.8s7.9,21.8,19.3,21.8c11.4,0,19.3-9,19.3-21.8S347.5,31.7,336.2,31.7z"/>
	</g>
	<g>
		
			<linearGradient id="SVGID_00000138539422962002156190000006450832774332171686_" gradientUnits="userSpaceOnUse" x1="83" y1="53.5027" x2="1041.6815" y2="53.5027">
			<stop  offset="0" style="stop-color:#0B6AEA"/>
			<stop  offset="0.15" style="stop-color:#9B51E0"/>
			<stop  offset="0.31" style="stop-color:#EB5757"/>
			<stop  offset="0.44" style="stop-color:#B38E74"/>
			<stop  offset="0.58" style="stop-color:#5F9261"/>
			<stop  offset="0.72" style="stop-color:#219653"/>
			<stop  offset="0.86" style="stop-color:#F2994A"/>
			<stop  offset="1" style="stop-color:#7107D4"/>
		</linearGradient>
		<path style="fill:url(#SVGID_00000138539422962002156190000006450832774332171686_);" d="M482.1,104.7h-81.7V2.4h37.8v71.9h43.9
			V104.7z M405.4,99.7h71.7V79.2h-43.9V7.4h-27.8V99.7z"/>
	</g>
	<g>
		
			<linearGradient id="SVGID_00000104689569610154410490000008559304528319860378_" gradientUnits="userSpaceOnUse" x1="83" y1="54.6145" x2="1041.6815" y2="54.6145">
			<stop  offset="0" style="stop-color:#0B6AEA"/>
			<stop  offset="0.15" style="stop-color:#9B51E0"/>
			<stop  offset="0.31" style="stop-color:#EB5757"/>
			<stop  offset="0.44" style="stop-color:#B38E74"/>
			<stop  offset="0.58" style="stop-color:#5F9261"/>
			<stop  offset="0.72" style="stop-color:#219653"/>
			<stop  offset="0.86" style="stop-color:#F2994A"/>
			<stop  offset="1" style="stop-color:#7107D4"/>
		</linearGradient>
		<path style="fill:url(#SVGID_00000104689569610154410490000008559304528319860378_);" d="M532.9,106.9
			c-31.2,0-49.9-18.1-49.9-48.5v-56h37.8v55c0,15.9,6.6,17.9,12.4,17.9c5.8,0,12.4-2,12.4-17.9v-55h37.2v56
			C582.8,88.7,564.2,106.9,532.9,106.9z M488,7.4v51c0,27.7,16.4,43.5,44.9,43.5s44.9-15.9,44.9-43.5v-51h-27.2v50
			c0,15.2-5.8,22.9-17.4,22.9s-17.4-7.7-17.4-22.9v-50H488z"/>
	</g>
	<g>
		
			<linearGradient id="SVGID_00000092432693721138359410000015580483067798803853_" gradientUnits="userSpaceOnUse" x1="83" y1="53.5027" x2="1041.6815" y2="53.5027">
			<stop  offset="0" style="stop-color:#0B6AEA"/>
			<stop  offset="0.15" style="stop-color:#9B51E0"/>
			<stop  offset="0.31" style="stop-color:#EB5757"/>
			<stop  offset="0.44" style="stop-color:#B38E74"/>
			<stop  offset="0.58" style="stop-color:#5F9261"/>
			<stop  offset="0.72" style="stop-color:#219653"/>
			<stop  offset="0.86" style="stop-color:#F2994A"/>
			<stop  offset="1" style="stop-color:#7107D4"/>
		</linearGradient>
		<path style="fill:url(#SVGID_00000092432693721138359410000015580483067798803853_);" d="M651,104.7h-37.8V32.8h-28.5V2.4h94.8
			v30.4H651V104.7z M618.2,99.7H646V27.8h28.5V7.4h-84.8v20.4h28.5V99.7z"/>
	</g>
	<g>
		
			<linearGradient id="SVGID_00000119078445126221057140000003146625003337481632_" gradientUnits="userSpaceOnUse" x1="83" y1="53.5027" x2="1041.6815" y2="53.5027">
			<stop  offset="0" style="stop-color:#0B6AEA"/>
			<stop  offset="0.15" style="stop-color:#9B51E0"/>
			<stop  offset="0.31" style="stop-color:#EB5757"/>
			<stop  offset="0.44" style="stop-color:#B38E74"/>
			<stop  offset="0.58" style="stop-color:#5F9261"/>
			<stop  offset="0.72" style="stop-color:#219653"/>
			<stop  offset="0.86" style="stop-color:#F2994A"/>
			<stop  offset="1" style="stop-color:#7107D4"/>
		</linearGradient>
		<path style="fill:url(#SVGID_00000119078445126221057140000003146625003337481632_);" d="M719.4,104.7h-37.8V2.4h37.8V104.7z
			 M686.6,99.7h27.8V7.4h-27.8V99.7z"/>
	</g>
	<g>
		
			<linearGradient id="SVGID_00000152242933993952228690000001462910148256513712_" gradientUnits="userSpaceOnUse" x1="83" y1="53.5024" x2="1041.6815" y2="53.5024">
			<stop  offset="0" style="stop-color:#0B6AEA"/>
			<stop  offset="0.15" style="stop-color:#9B51E0"/>
			<stop  offset="0.31" style="stop-color:#EB5757"/>
			<stop  offset="0.44" style="stop-color:#B38E74"/>
			<stop  offset="0.58" style="stop-color:#5F9261"/>
			<stop  offset="0.72" style="stop-color:#219653"/>
			<stop  offset="0.86" style="stop-color:#F2994A"/>
			<stop  offset="1" style="stop-color:#7107D4"/>
		</linearGradient>
		<path style="fill:url(#SVGID_00000152242933993952228690000001462910148256513712_);" d="M783.7,106.9
			c-33.3,0-57.4-22.4-57.4-53.4s24.1-53.4,57.4-53.4s57.4,22.4,57.4,53.4S817,106.9,783.7,106.9z M783.7,5.1
			c-30.4,0-52.4,20.3-52.4,48.4c0,28,22,48.4,52.4,48.4s52.4-20.3,52.4-48.4C836.1,25.5,814.1,5.1,783.7,5.1z M783.7,80.3
			c-14.3,0-24.3-11-24.3-26.8c0-15.8,10-26.8,24.3-26.8s24.3,11,24.3,26.8C808,69.3,798,80.3,783.7,80.3z M783.7,31.7
			c-11.4,0-19.3,9-19.3,21.8s7.9,21.8,19.3,21.8s19.3-9,19.3-21.8S795.1,31.7,783.7,31.7z"/>
	</g>
	<g>
		
			<linearGradient id="SVGID_00000054266765689255425840000016086630752871936679_" gradientUnits="userSpaceOnUse" x1="83" y1="53.5027" x2="1041.6815" y2="53.5027">
			<stop  offset="0" style="stop-color:#0B6AEA"/>
			<stop  offset="0.15" style="stop-color:#9B51E0"/>
			<stop  offset="0.31" style="stop-color:#EB5757"/>
			<stop  offset="0.44" style="stop-color:#B38E74"/>
			<stop  offset="0.58" style="stop-color:#5F9261"/>
			<stop  offset="0.72" style="stop-color:#219653"/>
			<stop  offset="0.86" style="stop-color:#F2994A"/>
			<stop  offset="1" style="stop-color:#7107D4"/>
		</linearGradient>
		<path style="fill:url(#SVGID_00000054266765689255425840000016086630752871936679_);" d="M948.9,104.7h-30.6l-33.3-39.8v39.8h-37
			V2.4h30.6l33.3,39.8V2.4h37V104.7z M920.6,99.7h23.3V7.4h-27v48.6L876.2,7.4h-23.3v92.3h27V51.1L920.6,99.7z"/>
	</g>
	<g>
		
			<linearGradient id="SVGID_00000117656839322817504930000003049939292196807087_" gradientUnits="userSpaceOnUse" x1="83" y1="53.5024" x2="1041.6815" y2="53.5024">
			<stop  offset="0" style="stop-color:#0B6AEA"/>
			<stop  offset="0.15" style="stop-color:#9B51E0"/>
			<stop  offset="0.31" style="stop-color:#EB5757"/>
			<stop  offset="0.44" style="stop-color:#B38E74"/>
			<stop  offset="0.58" style="stop-color:#5F9261"/>
			<stop  offset="0.72" style="stop-color:#219653"/>
			<stop  offset="0.86" style="stop-color:#F2994A"/>
			<stop  offset="1" style="stop-color:#7107D4"/>
		</linearGradient>
		<path style="fill:url(#SVGID_00000117656839322817504930000003049939292196807087_);" d="M999.9,106.9c-16.3,0-33.4-4.1-43.7-10.4
			l-1.9-1.1l12.6-28.5l2.4,1.4c8.9,5.3,20.7,8.5,30.8,8.5c3.1,0,10.1-0.3,10.1-2.8c0-2.5-7.7-4.1-14.5-5.5
			c-15.7-3.3-39.3-8.2-39.3-33.2c0-21.4,18.8-35.3,47.8-35.3c14.1,0,28,3.2,37.9,8.8l1.9,1.1l-11.8,28.3l-2.4-1.2
			c-9.1-4.6-17.8-7-26-7c-3.1,0-10.2,0.4-10.2,3.6c0,2.2,7.8,3.8,14.1,5c15.8,3.2,39.7,7.9,39.7,32.8
			C1047.7,87.9,1035.2,106.9,999.9,106.9z M960.7,93.3c9.7,5.2,24.8,8.6,39.2,8.6c26,0,42.8-11.9,42.8-30.3
			c0-20.8-19.8-24.7-35.6-27.9c-10.1-2-18.2-3.6-18.2-9.9c0-3.9,2.6-8.6,15.2-8.6c8.2,0,16.9,2.1,25.8,6.3l8-19.2
			c-9.1-4.5-21.1-7.1-33.5-7.1c-26,0-42.8,11.9-42.8,30.3c0,20.9,19.6,25,35.4,28.3c10.3,2.1,18.4,3.8,18.4,10.4
			c0,7.8-11,7.8-15.1,7.8c-10,0-21.6-3-30.9-7.9L960.7,93.3z"/>
	</g>
</g>
</svg>
