<?xml version="1.0" encoding="UTF-8"?><svg id="a" xmlns="http://www.w3.org/2000/svg" xmlns:xlink="http://www.w3.org/1999/xlink" viewBox="0 0 645.13 101.38"><defs><linearGradient id="b" x1="-2.46" y1="50.69" x2="636.88" y2="50.69" gradientUnits="userSpaceOnUse"><stop offset="0" stop-color="#0b6aea"/><stop offset=".15" stop-color="#9b51e0"/><stop offset=".31" stop-color="#eb5757"/><stop offset=".44" stop-color="#b38e74"/><stop offset=".58" stop-color="#5f9261"/><stop offset=".72" stop-color="#219653"/><stop offset=".86" stop-color="#f2994a"/></linearGradient><linearGradient id="c" x1="-2.46" y1="50.69" x2="636.88" y2="50.69" gradientUnits="userSpaceOnUse"><stop offset="0" stop-color="#0b6aea"/><stop offset=".15" stop-color="#9b51e0"/><stop offset=".31" stop-color="#eb5757"/><stop offset=".44" stop-color="#b38e74"/><stop offset=".58" stop-color="#5f9261"/><stop offset=".72" stop-color="#219653"/><stop offset=".86" stop-color="#f2994a"/><stop offset="1" stop-color="#7107d4"/></linearGradient><linearGradient id="d" x2="636.96" xlink:href="#c"/></defs><path d="m81.57,99.27H0V2.11h79.86v28.22h-44.51v6.12h39.09v27.16h-39.09v7.44h46.22v28.22Zm-76.86-4.71h72.15v-18.8H30.64v-16.86h39.09v-17.74H30.64v-15.54h44.51V6.82H4.71v87.73Z" fill="url(#b)"/><path d="m191.31,99.27h-41.51l-14.67-22.68-14.31,22.68h-41.41l35.11-48.99L80.65,2.11h40.78l14.44,21.36,14.08-21.36h39.41l-33.79,47,35.75,50.16Zm-38.95-4.71h29.81l-32.4-45.46,30.39-42.28h-27.68l-16.56,25.13-16.99-25.13h-29.21l30.58,43.48-31.72,44.25h29.64l16.86-26.71,17.29,26.71Z" fill="url(#c)"/><path d="m226.42,99.27h-35.88V2.11h46.86c27.02,0,44.48,14.61,44.48,37.22s-17.46,37.22-44.48,37.22h-10.98v22.71Zm-31.17-4.71h26.46v-22.71h15.69c24.53,0,39.77-12.46,39.77-32.51s-15.24-32.51-39.77-32.51h-42.15v87.73Zm40.17-42.04h-13.71v-26.37h13.71c9.55,0,15.03,4.81,15.03,13.19s-5.48,13.18-15.03,13.18Zm-9-4.71h9c6.95,0,10.32-2.77,10.32-8.47s-3.38-8.47-10.32-8.47h-9v16.95Z" fill="url(#d)"/><path d="m368.36,99.27h-81.57V2.11h79.86v28.22h-44.51v6.12h39.09v27.16h-39.09v7.44h46.22v28.22Zm-76.86-4.71h72.15v-18.8h-46.22v-16.86h39.09v-17.74h-39.09v-15.54h44.51V6.82h-70.43v87.73Z" fill="url(#c)"/><path d="m472.53,99.27h-38.98l-15.72-23.24h-4.85v23.24h-35.88V2.11h46.86c27.02,0,44.48,14.61,44.48,37.22,0,12.99-5.79,23.5-16.39,29.86l20.47,30.08Zm-36.48-4.71h27.58l-18.41-27.05,2.38-1.22c10.57-5.41,16.15-14.73,16.15-26.96,0-20.05-15.24-32.51-39.77-32.51h-42.15v87.73h26.46v-23.24h12.06l15.72,23.24Zm-14.06-42.04h-13.71v-26.37h13.71c9.55,0,15.03,4.81,15.03,13.19s-5.48,13.18-15.03,13.18Zm-9-4.71h9c6.95,0,10.32-2.77,10.32-8.47s-3.38-8.47-10.32-8.47h-9v16.95Z" fill="url(#c)"/><path d="m531.42,99.27h-35.88V30.99h-27.07V2.11h90.02v28.88h-27.07v68.28Zm-31.17-4.71h26.46V26.28h27.07V6.82h-80.6v19.46h27.07v68.28Z" fill="url(#c)"/><path d="m599.72,101.38c-15.47,0-31.77-3.87-41.51-9.86l-1.75-1.08,11.94-27.02,2.28,1.35c8.48,5.01,19.71,8.12,29.31,8.12,3.61,0,9.66-.35,9.66-2.66s-7.3-3.87-13.75-5.22c-14.88-3.1-37.36-7.78-37.36-31.5,0-20.36,17.82-33.52,45.41-33.52,13.43,0,26.56,3.05,36.02,8.36l1.82,1.02-11.15,26.86-2.27-1.15c-8.65-4.39-16.96-6.61-24.69-6.61-2.91,0-9.66.34-9.66,3.46,0,2.1,7.45,3.59,13.44,4.78,15,2.99,37.67,7.52,37.67,31.14,0,15.46-11.89,33.52-45.41,33.52Zm-37.27-12.85c9.2,4.98,23.53,8.14,37.27,8.14,24.72,0,40.7-11.31,40.7-28.81,0-19.76-18.79-23.51-33.88-26.52-9.63-1.92-17.23-3.44-17.23-9.4,0-3.73,2.49-8.17,14.37-8.17,7.78,0,16.03,2.02,24.54,6.01l7.6-18.29c-8.61-4.32-20.08-6.78-31.87-6.78-24.72,0-40.7,11.31-40.7,28.81,0,19.89,18.64,23.77,33.61,26.89,9.78,2.04,17.5,3.64,17.5,9.83,0,7.37-10.44,7.37-14.37,7.37-9.54,0-20.56-2.84-29.4-7.49l-8.14,18.42Z" fill="url(#c)"/></svg>