<?xml version="1.0" encoding="UTF-8"?><svg id="a" xmlns="http://www.w3.org/2000/svg" viewBox="0 0 151.21 186.79"><path d="m144.32,102.44c-2.97-.82-5.3-2.12-7.25-4.44-1.15-1.36-2.4-2.83-4.09-3.35v-10.41c0-.1,0-.2-.02-.3,3.33-.81,6.65-2.71,9.11-5.46,4.39-4.9,5.08-11.16,1.9-17.2-2.89-5.49-6.84-9.02-11.73-10.5-7.96-2.41-15.44,1.59-15.69,1.73l-25.22,12.38c.49-1.86.77-3.79,1.01-5.55.35-2.57-.86-4.99-.71-7.53.17-2.87.68-4.96-.55-7.7-.76-1.68-1.5-3.36-1.2-5.24.28-1.78.72-3.5.88-5.33.02-.29.04-.58-.05-.85-.11-.31-.36-.55-.58-.8-.95-1.06-1.52-2.42-1.81-3.82-.04-.2-.08-.4-.11-.59-.47-3.13-.23-6.5-.42-9.68-.44-7.55-4.33-15.71-12.3-17.6-2.8-.66-6.05.26-7.67,2.63-1.09,1.59-1.3,3.88-.12,5.4.31.41.75.76,1.27.79,1.34.06,1.78-1.94,3.03-2.45,4.71-1.93,2.06,9.34.33,10.89-.93.83-2.25,1.28-3.09,2.2-1.24,1.37-.93,2.75-1.61,4.34-.78,1.83-3.7,3.34-5.47,4.02-2.23.86-4.94-.04-6.99,1.3-.98.64-1.74,1.76-2.91,1.92-.57.08-1.14-.09-1.72-.18-1.92-.29-3.88.42-5.47,1.54-4.55,3.2-6.48,6.66-5.8,10.66-1.11-.8-1.93-1.93-2.1-4.1-.26,1.19-.42,2.44-.17,3.64.25,1.2.95,2.35,2.06,2.88-1.98-.08-3.78-1.74-4.02-3.71-.59,1.17-.56,2.63.07,3.78s1.85,1.95,3.16,2.07c-1.46.07-2.85.96-3.53,2.25-.68,1.29-.62,2.94.14,4.18.09-2,1.78-3.76,3.73-4.08-.21,1.07-.28,2.16-.21,3.26.1,1.55,1.22,4.03.05,5.47-1.83,2.26-5.74.13-7.52,3.05-1.74,2.87-1.28,7.01,2.33,8.02.51.14,1.09.23,1.47.57-.58.77-1.06,1.62-1.69,2.37-1.42,1.7-3.49,2.68-5.49,3.6,1.54.66,3.33.7,4.9.11-3.82,2.69-6.48,6.97-7.2,11.59.98-1.81,2.26-3.52,3.79-4.91,1.23-1.11,3.05-1.59,4.59-2.06-.55,2.38-2.4,5.44-4.68,6.55.25-.12,2.2.37,2.91.16.95-.29,1.8-.9,2.53-1.53.24,2.15-3.16,4.71-4.32,6.38-.61.88-1.14,1.86-1.49,2.88l-.62.3c-.45-.53-.92-1.08-1.61-1.52-.99-.63-2.28-.65-3.4-.28-1.11.37-2.08,1.09-2.97,1.85-.25.21-.5.44-.8.57-.26.11-.55.15-.83.18-.91.12-1.85.26-2.63.74-1.11.69-1.51,2.05-1.07,3.25.18.49.47.93.79,1.35l-14.52,7.13c-.85.42-1.2,1.44-.78,2.28.02.05.05.09.07.13.45.75,1.41,1.04,2.21.65l15.39-7.55c.42.37.86.71,1.36.97,1.11.57,2.93.92,1.6,2.31-.68.71-1.1,1.68-1.04,2.66.07.98.68,1.93,1.58,2.29.9.36,1.92.12,2.89.22,1.37.15,2.57.97,3.69,1.77,1.3.92,2.72,1.79,3.96,2.82-.03.51-.05,1.02-.07,1.5-.14,3.61.04,7.3-.61,10.86-.45,2.43-3.88,7.21-2.37,9.22.75,1,2.1,1.61,3.78,1.95-.23.45-.43.91-.6,1.4-.85,2.49-2.74,4.56-3.43,7.11-.06.23-.11.46-.15.7-.4,2.26.02,5,.29,7.21.42.09.84.17,1.26.25.24,1.1.55,2.14.91,3.15-.31,0-.59.02-.85.04-.17.01-.35.03-.48.14-.19.17-.19.46-.15.71.16,1.14.66,2.19,1.05,3.27.72,1.97,1.12,4.05,1.17,6.15,0,.3,0,3.08-.56,2.5-.06-.06-.07-.15-.12-.22-.15-.2-.46-.08-.67.06-.92.62-1.86,1.21-2.76,1.86-.39.28-.76.49-1,.92-.16.28.12.68-.13.92-.93.92-3.04.5-4.2.3-1.88-.32-3.7-1.13-5.64-1.01-2.4.15-2.67,1.81-2.25,3.52.24,1.01.73,2.03,1.15,2.78,1.58,2.76,5.08,3.46,7.75,3.61,3.68.21,7.46.03,11.11-.5.48-.07.98-.16,1.36-.49.33-.28.53-.7.78-1.07.61-.94,1.49-1.63,2.47-1.94.29-.09.62-.15.89.02.64.39.46,2.58.46,3.26,0,0,4.58.62,4.62-.18.1-2.08.96-4.64.37-6.65-.15-.49-.38-.95-.56-1.43-.85-2.37-.12-4.96.37-7.43.14-.71.26-1.43.21-2.15-.15-2.04-1.55-3.54-3.48-4.61-.09-.55-.18-1.11-.26-1.66-.1-.64-.21-1.31-.32-1.99,1.33.16,2.66.3,4,.42.06-3.33.17-6.3,2.98-8.56,2.46-1.99,5.22-3.55,7.85-5.28.12.28.23.56.37.83,1.56,3.16,3.85,6.17,5.55,9.35.67.17,1.36-.13,1.99-.43.25-.12.5-.24.74-.36.3.46.64.97,1.03,1.53-.44.17-.85.33-1.19.49-.15.07-.32.16-.4.31-.12.22-.01.5.11.72.55,1,1.4,1.81,2.15,2.67,1.38,1.58,2.49,3.39,3.28,5.33.32.81.68,1.7.56,2.55-1.3-1-2.78,1.43-3.68,2.31-.18.18-.37.37-.45.62-.11.37.06.78-.08,1.13-1.14,2.85-6.6-.13-8.13-.86-.74-.35-1.65-.37-2.35.1-1.07.71-1.38,2.22-1.04,3.46.34,1.24,1.18,2.28,2.05,3.23.18.2.36.4.56.61,1.62,1.68,4.11,1.99,6.36,1.98,2.89-.01,5.86-.23,8.73-.41,2.08-.12,3.81-1.27,5.28-2.66,1.3-1.23,1.68-3.11,3.02-4.17.24-.19.53-.36.84-.3.73.14,1.35,2.25,1.59,2.88,0,0,4.5-1.06,4.25-1.82-.65-1.98-.76-4.68-2.03-6.35-.31-.41-.7-.75-1.03-1.14-1.64-1.91-1.89-4.59-2.3-7.07-.12-.71-.26-1.43-.57-2.08-.79-1.7-2.41-2.59-4.36-2.97-.69-1.65-1.45-3.27-2.25-4.87.59-.28,1.17-.56,1.76-.85.24-.12.5-.24.66-.46.65-.89-1.22-4.21-1.43-5.18-.46-2.1-.39-4.28-.23-6.42.11-1.54.19-3.07.26-4.61,3.61-1.84,6.97-4.06,9.94-6.69.61-.54,1.22-1.14,1.45-1.92.58-1.99-1.53-3.61-2.78-5.27-3.65-4.86-5.52-11.54-6.37-18.14-.15-1.21-.26-2.41-.36-3.6,1.56.57,3.31.65,4.88.11-1.7-1.33-3.74-3.01-3.94-5.33-.06-.7.05-1.41.17-2.1.7,1.42,1.26,2.67,2.65,3.55,2.12,1.34,4.18,1.87,6.7,1.69.84-.06,1.69-.17,2.47-.51.77-.34,1.47-.93,1.75-1.73-2.88.6-5.79-1.11-6.74-3.92-.75-2.23-1.52-4.57-1.16-6.9,1.02.3,1.96.24,2.9.86.81.53,1.46,1.31,1.84,2.2.38.9.86,1.83,1.01,2.8.06.39.31,2.77-.06,2.98.48-.27.69-.82.87-1.34.33-.94.66-1.88.86-2.86.16-.78.04-1.45.01-2.24-.07-1.74-.63-3.46-1.62-4.9-.03-.05-.06-.1-.05-.15.02-.07.11-.09.18-.1,1.53-.13,2.58.7,3.76,1.61.48.37.94.79,1.35,1.24.2.22,1.09,1.05,1.06,1.35.19-1.85-.6-3.69-1.8-5.11-1.19-1.42-2.76-2.48-4.33-3.46-.76-.48-1.6-1.02-1.83-1.89.74.02,1.44-.21,2.05-.6,1.55-.99,2.5-3.04,1.87-4.81-1.03,2.42-2.29,2.68-3.69,2,.02-.03.06-.05.08-.08.15-.18.27-.38.4-.57l28.91-14.19c.06-.04,6.52-3.49,13.13-1.49,3.98,1.2,7.24,4.17,9.7,8.82,3.39,6.43.57,11.11-1.42,13.33-3.48,3.88-9.16,5.76-12.94,4.26-5.23-2.06-7.08-5.95-7.06-8.9.02-3.22,2.02-5.9,5.35-7.18.88-.34,1.32-1.32.99-2.2-.33-.88-1.32-1.32-2.2-.99-4.63,1.77-7.52,5.73-7.54,10.34-.03,5.2,3.5,9.84,9.22,12.1,1.3.51,2.74.75,4.24.74v10.52c-1.38.65-2.46,1.91-3.46,3.09-1.96,2.32-4.28,3.61-7.26,4.43-2.29.63-7.68.74-6.8,4.12.52,2.02,2.06,3.62,3.42,5.31.04.05.16.1.32.15.79,3.93,1.62,7.82,2.17,11.83.52,3.78.93,7.57,1.23,11.38.24,3.06-.32,6.89,2.64,8.33,2.77,1.35,6.48,1.29,9.55,1.36.08,0,.17,0,.25,0,.08,0,.17,0,.25,0,3.07-.07,6.79,0,9.56-1.35,2.96-1.44,2.4-5.26,2.65-8.32.31-3.81.72-7.6,1.25-11.38.56-4.03,1.4-7.94,2.2-11.89.06-.03.12-.06.14-.1,1.21-1.49,2.9-3.28,3.43-5.31.88-3.38-4.51-3.5-6.8-4.13Zm-111.59-4.97c-.03.32-.03.65,0,.97-.43-.11-.86-.22-1.3-.33l1.31-.64Zm91.15,40.43c-.83.09-1.63-.38-2.14-.99-1.1-1.33-.91-2.77-1.14-4.38-.32-2.27-.58-4.55-.8-6.83-.19-1.99-.38-3.97-.54-5.96-.05-.56-.1-1.11-.16-1.66.65-.63,1.74-.81,2.6-.45,1.06.44,1.76,1.5,2.06,2.61.47,1.76.25,3.78.42,5.59.19,2.05.33,4.11.44,6.16,0,.83.21,1.66.21,2.49,0,.78.16,3.29-.95,3.41Zm12.01.19c-.63.87-1.64,1.43-2.69,1.67-1.05.24-2.15.19-3.22.03-.5-.08-1.01-.18-1.46-.43-.74-.41-1.24-1.17-1.49-1.98-.49-1.61-.34-3.41-.35-5.06,0-2.56-.01-5.11-.02-7.67,0-1.34,0-2.68-.01-4.02,0-1.04-.16-2.23.42-3.15.29-.47.76-.81,1.25-1.06,2.08-1.09,5.78-1.05,7.37.9.38.47.56.96.72,1.53.06.2.17.91.3,1.44-.04,1.16-.08,2.31-.08,3.46-.01,2.86-.02,5.72-.03,8.58,0,1.98.56,3.98-.73,5.76Zm8.21-18.44c-.21,2.02-.4,4.04-.59,6.06-.19,1.98-.41,3.95-.68,5.92-.1.77-.16,1.44-.36,2.21-.27,1.02-.55,2.07-1.2,2.91-.57.73-1.64,1.28-2.34.4-.76-.95-.34-2.91-.3-4.01.12-3.26.38-6.51.74-9.74.19-1.74.22-3.32,1-4.92.39-.8,1.32-1.28,2.19-1.15.74.11,1.38.67,1.63,1.36-.03.32-.07.65-.1.97Z"/></svg>