<?xml version="1.0" encoding="UTF-8"?><svg id="a" xmlns="http://www.w3.org/2000/svg" xmlns:xlink="http://www.w3.org/1999/xlink" viewBox="0 0 1565.98 111.11"><defs><linearGradient id="b" x1="-2.06" y1="56.14" x2="1556.94" y2="41.14" gradientUnits="userSpaceOnUse"><stop offset="0" stop-color="#0b6aea"/><stop offset=".15" stop-color="#9b51e0"/><stop offset=".31" stop-color="#eb5757"/><stop offset=".44" stop-color="#b38e74"/><stop offset=".58" stop-color="#5f9261"/><stop offset=".72" stop-color="#219653"/><stop offset=".86" stop-color="#f2994a"/><stop offset="1" stop-color="#7107d4"/></linearGradient><linearGradient id="c" x1="-2.05" y1="57.15" x2="1556.95" y2="42.15" xlink:href="#b"/><linearGradient id="d" x1="-2.05" y1="57.15" x2="1556.95" y2="42.15" xlink:href="#b"/><linearGradient id="e" x1="-2.04" y1="58.2" x2="1556.96" y2="43.2" xlink:href="#b"/><linearGradient id="f" x1="-2.03" y1="59.15" x2="1556.97" y2="44.15" xlink:href="#b"/><linearGradient id="g" x1="-2.03" y1="59.15" x2="1556.97" y2="44.15" xlink:href="#b"/><linearGradient id="h" x1="-2.02" y1="60.3" x2="1556.98" y2="45.3" xlink:href="#b"/><linearGradient id="i" x1="-1.8" y1="46.96" x2="1557.2" y2="31.96" xlink:href="#b"/><linearGradient id="j" x1="-2" y1="61.84" x2="1557" y2="46.84" xlink:href="#b"/><linearGradient id="k" x1="-1.99" y1="62.73" x2="1557.01" y2="47.73" xlink:href="#b"/><linearGradient id="l" x1="-1.99" y1="63.44" x2="1557.01" y2="48.44" xlink:href="#b"/><linearGradient id="m" x1="-1.98" y1="64.28" x2="1557.02" y2="49.28" xlink:href="#b"/><linearGradient id="n" x1="-1.97" y1="65.38" x2="1557.03" y2="50.38" xlink:href="#b"/><linearGradient id="o" x1="-1.97" y1="65.51" x2="1557.03" y2="50.51" xlink:href="#b"/><linearGradient id="p" x1="-1.96" y1="66.7" x2="1557.04" y2="51.7" xlink:href="#b"/><linearGradient id="q" x1="-1.95" y1="67.61" x2="1557.05" y2="52.61" xlink:href="#b"/><linearGradient id="r" x1="-1.94" y1="68.28" x2="1557.06" y2="53.28" xlink:href="#b"/><linearGradient id="s" x1="-1.93" y1="69.11" x2="1557.07" y2="54.11" xlink:href="#b"/><linearGradient id="t" x1="-1.92" y1="70.15" x2="1557.08" y2="55.15" xlink:href="#b"/></defs><path d="m81.54,70.67c-6.01,7.24-13.05,10.76-21.51,10.76-15.05,0-25.15-10.4-25.15-25.88s10.11-25.88,25.15-25.88c8.47,0,15.51,3.52,21.51,10.76l2,2.41,22.61-20.45-1.76-2.2C93.82,6.98,77.99,0,58.59,0,24.64,0,0,23.36,0,55.55s24.64,55.55,58.59,55.55c19.4,0,35.24-6.98,45.8-20.18l1.76-2.2-22.61-20.45-2,2.41Zm16.33,18.65c-9.36,10.34-22.88,15.79-39.29,15.79-30.47,0-52.59-20.84-52.59-49.55S28.12,6,58.59,6c16.41,0,29.93,5.45,39.29,15.79l-13.79,12.48c-6.73-7.03-14.8-10.59-24.05-10.59-18.34,0-31.15,13.11-31.15,31.88s12.81,31.88,31.15,31.88c9.25,0,17.32-3.56,24.05-10.59l13.79,12.48Z" fill="url(#b)"/><path d="m205.81,15.72c-10.84-10.13-25.85-15.72-42.26-15.72s-31.42,5.58-42.26,15.72c-10.9,10.19-16.91,24.34-16.91,39.84s6,29.65,16.91,39.84c10.84,10.13,25.85,15.72,42.26,15.72s31.42-5.58,42.26-15.72c10.9-10.19,16.9-24.34,16.9-39.84s-6-29.65-16.9-39.84Zm-42.26,89.39c-30.81,0-53.16-20.84-53.16-49.55S132.74,6,163.55,6s53.16,20.84,53.16,49.55-22.36,49.55-53.16,49.55Z" fill="url(#c)"/><path d="m163.55,23.68c-17.55,0-30.29,13.41-30.29,31.88s12.74,31.88,30.29,31.88,30.29-13.41,30.29-31.88-12.74-31.88-30.29-31.88Zm0,57.75c-14.3,0-24.29-10.64-24.29-25.88s9.99-25.88,24.29-25.88,24.29,10.64,24.29,25.88-9.99,25.88-24.29,25.88Z" fill="url(#d)"/><path d="m266.31,2.02h-34.59v107.06h82.81v-28.67h-48.22V2.02Zm42.22,101.06h-70.81V8.02h22.59v78.4h48.22v16.67Z" fill="url(#e)"/><path d="m414.43,15.72c-10.84-10.13-25.85-15.72-42.26-15.72s-31.42,5.58-42.26,15.72c-10.9,10.19-16.91,24.34-16.91,39.84s6,29.65,16.91,39.84c10.84,10.13,25.85,15.72,42.26,15.72s31.42-5.58,42.26-15.72c10.9-10.19,16.9-24.34,16.9-39.84s-6-29.65-16.9-39.84Zm-42.26,89.39c-30.81,0-53.16-20.84-53.16-49.55s22.36-49.55,53.16-49.55,53.16,20.84,53.16,49.55-22.36,49.55-53.16,49.55Z" fill="url(#f)"/><path d="m372.17,23.68c-17.55,0-30.29,13.41-30.29,31.88s12.74,31.88,30.29,31.88,30.29-13.41,30.29-31.88-12.74-31.88-30.29-31.88Zm0,57.75c-14.3,0-24.29-10.64-24.29-25.88s9.99-25.88,24.29-25.88,24.29,10.64,24.29,25.88-9.99,25.88-24.29,25.88Z" fill="url(#g)"/><path d="m537.45,42.42c0-12.24-4.56-22.5-13.19-29.67-8.45-7.02-20.45-10.73-34.71-10.73h-49.2v107.06h34.59v-26.85h11.01l18.34,26.85h37.89l-23.13-33.69c11.9-6.95,18.41-18.54,18.41-32.98Zm-30,60.67l-18.34-26.85h-20.18v26.85h-22.59V8.02h43.2c25.85,0,41.9,13.18,41.9,34.39,0,13.4-6.25,23.49-18.08,29.21l-3.15,1.52,20.55,29.95h-23.33Z" fill="url(#h)"/><path d="m487.82,24.54h-18.88v35.6h18.88c13.19,0,20.76-6.46,20.76-17.73s-7.57-17.87-20.76-17.87Zm0,29.6h-12.88v-23.6h12.88c9.93,0,14.76,3.88,14.76,11.87s-4.97,11.73-14.76,11.73Z" fill="url(#i)"/><path d="m684.2,2.02l-32.98,55.51-33.8-55.51h-28.22v107.06h32.42v-44.49l21.16,34.52h16.09l21.34-35.81.25,45.77h32.27l-.31-107.06h-28.23Zm-38.05,91.1l-30.52-49.79v59.75h-20.42V8.02h18.85l37.23,61.15,36.33-61.15h18.84l.27,95.06h-20.28l-.33-61.36-30.63,51.4h-9.32Z" fill="url(#j)"/><path d="m726.94,109.09h34.59V2.02h-34.59v107.06Zm6-101.06h22.59v95.06h-22.59V8.02Z" fill="url(#k)"/><path d="m810.47,2.02h-34.59v107.06h82.81v-28.67h-48.22V2.02Zm42.22,101.06h-70.81V8.02h22.59v78.4h48.22v16.67Z" fill="url(#l)"/><path d="m898.53,2.02h-34.59v107.06h82.81v-28.67h-48.22V2.02Zm42.22,101.06h-70.81V8.02h22.59v78.4h48.22v16.67Z" fill="url(#m)"/><path d="m1044.82,2.02h-50.79v107.06h50.79c35.56,0,59.45-21.51,59.45-53.53s-23.89-53.53-59.45-53.53Zm0,101.06h-44.79V8.02h44.79c32.47,0,53.45,18.66,53.45,47.53s-20.98,47.53-53.45,47.53Z" fill="url(#n)"/><path d="m1043.66,24.83h-21.05v61.44h21.05c19.28,0,31.73-12.06,31.73-30.72s-12.46-30.72-31.73-30.72Zm0,55.44h-15.05V30.83h15.05c16.11,0,25.73,9.24,25.73,24.72s-9.62,24.72-25.73,24.72Z" fill="url(#o)"/><path d="m1147.58,68.52h44.9v-27.37h-44.9v-11.04h50.97V2.02h-85.26v107.06h87.14v-28.09h-52.84v-12.48Zm46.84,34.57h-75.14V8.02h73.26v16.09h-50.97v23.04h44.9v15.37h-44.9v24.48h52.84v16.09Z" fill="url(#p)"/><path d="m1256.39,41.68c-8.81-1.91-17.13-3.72-17.13-7.35,0-5.3,8.34-6.1,13.32-6.1,8.46,0,17.4,2.5,26.59,7.44l2.92,1.57,11.09-26.71-2.27-1.32c-10.1-5.85-24.01-9.21-38.18-9.21-29.01,0-47.76,14.04-47.76,35.77,0,25.11,23.11,30.27,39.98,34.04,8.99,2.01,17.48,3.9,17.48,7.83,0,4.55-8.43,5.23-13.46,5.23-10.72,0-22.87-3.63-31.7-9.46l-2.96-1.95-11.83,26.58,2.03,1.42c10.32,7.19,27.29,11.66,44.31,11.66,35.25,0,47.76-19.19,47.76-35.63,0-25.08-23.23-30.12-40.19-33.8Zm-7.57,63.43c-14.5,0-29.38-3.58-38.81-9.24l6.95-15.61c9.4,5.36,21.34,8.62,32,8.62,16.08,0,19.46-6.11,19.46-11.23,0-8.74-10.28-11.03-22.18-13.69-16.54-3.69-35.29-7.88-35.29-28.18,0-18.37,16-29.77,41.76-29.77,12.08,0,23.88,2.59,32.87,7.15l-6.53,15.73c-9.05-4.41-17.95-6.65-26.48-6.65-16.81,0-19.32,7.58-19.32,12.1,0,8.47,10.13,10.67,21.86,13.21,16.62,3.61,35.46,7.69,35.46,27.93,0,18-16.39,29.63-41.76,29.63Z" fill="url(#q)"/><path d="m1303.72,109.09h34.59V2.02h-34.59v107.06Zm6-101.06h22.59v95.06h-22.59V8.02Z" fill="url(#r)"/><path d="m1408.21,29.68c8.88,0,15.97,3.27,22.32,10.28l2.01,2.22,22.55-20.4-1.84-2.21c-10.64-12.8-26.71-19.56-46.49-19.56-34.37,0-59.31,23.36-59.31,55.55s24.7,55.55,58.73,55.55c15.95,0,32.47-5.01,44.19-13.41l1.25-.9v-46.41h-31.27v28.74c-3.95,1.55-8.04,2.3-12.45,2.3-15.3,0-25.59-10.4-25.59-25.88s10.16-25.88,25.88-25.88Zm-31.88,25.88c0,18.77,12.99,31.88,31.59,31.88,5.95,0,11.41-1.18,16.7-3.59l1.75-.8v-26.65h19.27v37.3c-10.66,7.17-25.27,11.42-39.45,11.42-30.55,0-52.73-20.84-52.73-49.55s21.92-49.55,53.31-49.55c16.77,0,30.51,5.26,39.97,15.25l-13.84,12.52c-7-6.78-15.1-10.09-24.68-10.09-19.07,0-31.88,12.81-31.88,31.88Z" fill="url(#s)"/><path d="m1531.97,2.02v48.53l-40.2-48.53h-27.94v107.06h34.01v-48.53l40.2,48.53h27.94V2.02h-34.01Zm28.01,101.06h-19.12l-49.02-59.18v59.18h-22.01V8.02h19.12l49.02,59.18V8.02h22.01v95.06Z" fill="url(#t)"/></svg>