<?xml version="1.0" encoding="UTF-8"?><svg id="a" xmlns="http://www.w3.org/2000/svg" xmlns:xlink="http://www.w3.org/1999/xlink" viewBox="0 0 866.54 171.61"><defs><linearGradient id="b" x1="-1.47" y1="85.81" x2="860.53" y2="85.81" gradientUnits="userSpaceOnUse"><stop offset="0" stop-color="#0b6aea"/><stop offset=".15" stop-color="#9b51e0"/><stop offset=".31" stop-color="#eb5757"/><stop offset=".44" stop-color="#b38e74"/><stop offset=".58" stop-color="#5f9261"/><stop offset=".72" stop-color="#219653"/><stop offset=".86" stop-color="#f2994a"/><stop offset="1" stop-color="#7107d4"/></linearGradient><linearGradient id="c" y1="85.81" y2="85.81" xlink:href="#b"/><linearGradient id="d" y1="85.81" y2="85.81" xlink:href="#b"/><linearGradient id="e" y1="140.66" y2="140.66" xlink:href="#b"/><linearGradient id="f" y1="55.31" y2="55.31" xlink:href="#b"/></defs><path d="m103.34,60.09h-44.62V3.64H0v164.33h58.72v-58.72h44.62v58.72h58.72V3.64h-58.72v56.45Zm5-51.45h48.72v154.33h-48.72v-58.72h-54.62v58.72H5V8.64h48.72v56.45h54.62V8.64Z" fill="url(#b)"/><path d="m240.8,106.52h67.37v-43.69h-67.37v-13.67h76.71V3.64h-134.51v164.33h137.47v-45.52h-79.67v-15.94Zm74.67,20.94v35.52h-127.47V8.64h124.51v35.52h-76.71v23.67h67.37v33.69h-67.37v25.94h79.67Z" fill="url(#b)"/><path d="m394.89,3.64h-58.72v164.33h130.64v-46.65h-71.93V3.64Zm66.93,122.68v36.65h-120.64V8.64h48.72v117.68h71.93Z" fill="url(#b)"/><path d="m535.32,3.64h-58.72v164.33h130.64v-46.65h-71.93V3.64Zm66.93,122.68v36.65h-120.64V8.64h48.72v117.68h71.93Z" fill="url(#b)"/><path d="m700.8,43.47c-22.51,0-38.24,17.41-38.24,42.33s15.72,42.33,38.24,42.33,38.24-17.41,38.24-42.33-15.72-42.33-38.24-42.33Zm0,79.67c-19.57,0-33.24-15.35-33.24-37.33s13.67-37.33,33.24-37.33,33.24,15.35,33.24,37.33-13.67,37.33-33.24,37.33Z" fill="url(#c)"/><path d="m700.8,0c-53.54,0-92.41,36.09-92.41,85.81s38.86,85.81,92.41,85.81,92.41-36.09,92.41-85.81S754.34,0,700.8,0Zm0,166.61c-50.65,0-87.41-33.98-87.41-80.81S650.15,5,700.8,5s87.41,33.98,87.41,80.81-36.76,80.81-87.41,80.81Z" fill="url(#d)"/><path d="m833.04,111.08c-18.86,0-32.54,12.35-32.54,29.36s13.99,29.81,32.54,29.81,32.55-12.82,32.55-29.81-13.69-29.36-32.55-29.36Zm0,54.17c-15.7,0-27.54-10.67-27.54-24.81s11.58-24.36,27.54-24.36,27.55,10.24,27.55,24.36-11.84,24.81-27.55,24.81Z" fill="url(#e)"/><path d="m855.77,106.97l10.76-103.33h-67l10.76,103.33h45.48Zm5.22-98.33l-9.72,93.33h-36.46l-9.72-93.33h55.91Z" fill="url(#f)"/></svg>