<?xml version="1.0" encoding="UTF-8"?><svg id="a" xmlns="http://www.w3.org/2000/svg" xmlns:xlink="http://www.w3.org/1999/xlink" viewBox="0 0 939.73 111.87"><defs><linearGradient id="b" x1="-2.04" y1="55.93" x2="933.96" y2="55.93" gradientUnits="userSpaceOnUse"><stop offset="0" stop-color="#0b6aea"/><stop offset=".15" stop-color="#9b51e0"/><stop offset=".31" stop-color="#eb5757"/><stop offset=".44" stop-color="#b38e74"/><stop offset=".58" stop-color="#5f9261"/><stop offset=".72" stop-color="#219653"/><stop offset=".86" stop-color="#f2994a"/><stop offset="1" stop-color="#7107d4"/></linearGradient><linearGradient id="c" x2="933.96" xlink:href="#b"/><linearGradient id="d" x2="933.96" xlink:href="#b"/><linearGradient id="e" y1="49.34" y2="49.34" xlink:href="#b"/><linearGradient id="f" y1="43.38" y2="43.38" xlink:href="#b"/><linearGradient id="g" x2="933.96" xlink:href="#b"/><linearGradient id="h" y1="49.34" y2="49.34" xlink:href="#b"/></defs><path d="m0,109.53h39.46V2.34H0v107.2ZM5,7.34h29.46v97.2H5V7.34Z" fill="url(#b)"/><path d="m119.88,44.38L84.71,2.34h-31.99v107.2h38.58v-42.04l35.17,42.04h31.99V2.34h-38.58v42.04Zm5-37.04h28.58v97.2h-24.66l-42.5-50.81v50.81h-28.58V7.34h24.66l42.5,50.81V7.34Z" fill="url(#c)"/><path d="m221.48,40.59c-6.66-1.33-14.94-2.98-14.94-5.39,0-3.54,7.54-3.92,10.79-3.92,8.56,0,17.76,2.46,27.34,7.32l2.41,1.22,12.25-29.51-1.94-1.09c-10.44-5.86-24.93-9.23-39.77-9.23-30.43,0-50.09,14.51-50.09,36.96,0,26.14,24.81,31.3,41.22,34.72,7.16,1.49,15.28,3.18,15.28,5.87s-6.76,3.05-10.79,3.05c-10.63,0-23.06-3.45-32.45-9l-2.42-1.43-13.12,29.68,1.86,1.14c10.76,6.61,28.75,10.88,45.84,10.88,36.98,0,50.09-19.91,50.09-36.96,0-26.03-25.01-31.02-41.56-34.32Zm-8.54,66.28c-15.25,0-31.15-3.52-41.34-9.05l9.08-20.55c9.77,5.17,21.98,8.32,32.55,8.32,4.32,0,15.79,0,15.79-8.05,0-6.75-8.5-8.52-19.26-10.76-16.59-3.45-37.24-7.75-37.24-29.82,0-19.41,17.7-31.96,45.09-31.96,13.09,0,25.82,2.73,35.36,7.54l-8.48,20.41c-9.43-4.43-18.56-6.68-27.18-6.68-13.05,0-15.79,4.85-15.79,8.92,0,6.51,8.37,8.18,18.96,10.29,16.72,3.34,37.54,7.49,37.54,29.42,0,19.41-17.7,31.96-45.09,31.96Z" fill="url(#b)"/><path d="m360.28,2.34h-99.31v31.72h29.93v75.48h39.46V34.05h29.93V2.34Zm-5,26.72h-29.93v75.48h-29.46V29.05h-29.93V7.34h89.31v21.72Z" fill="url(#d)"/><path d="m387.61,2.34l-46.86,107.2h40.58l6.86-17.81h35.4l6.86,17.81h41.16L424.75,2.34h-37.14Zm46.28,102.2l-6.86-17.81h-42.27l-6.86,17.81h-29.5L390.88,7.34h30.6l42.49,97.2h-30.09Z" fill="url(#b)"/><path d="m392.32,66.9h27.15l-13.57-35.13-13.57,35.13Zm7.29-5l6.28-16.26,6.28,16.26h-12.56Z" fill="url(#e)"/><path d="m523.58,32.89c8.13,0,15.01,3.39,21.03,10.38l1.65,1.91,25.75-22.68-1.52-1.87c-11.01-13.5-27.84-20.63-48.66-20.63-16.97,0-32.33,5.54-43.25,15.61-11.01,10.14-17.07,24.46-17.07,40.33,0,32.41,25.06,55.93,59.58,55.93,16.44,0,33.62-5.02,45.94-13.43l1.09-.74v-47.04h-34.93v26.62c-3.23,1.14-6.54,1.7-10.06,1.7-13.29,0-21.88-9.05-21.88-23.05s8.55-23.05,22.32-23.05Zm-27.32,23.05c0,16.78,10.8,28.05,26.88,28.05,4.75,0,9.17-.87,13.51-2.67l1.54-.64v-25.01h24.93v39.38c-11.3,7.32-27.26,11.83-42.03,11.83-32.14,0-54.58-20.94-54.58-50.93s22.75-50.93,55.31-50.93c18.29,0,33.17,5.86,43.21,16.96l-18.35,16.16c-6.63-6.89-14.22-10.24-23.11-10.24-16.6,0-27.32,11.01-27.32,28.05Z" fill="url(#b)"/><path d="m629.35,28.91h-15.06v28.94h15.06c10.5,0,16.52-5.27,16.52-14.47s-6.02-14.47-16.52-14.47Zm0,23.94h-10.06v-18.94h10.06c7.75,0,11.52,3.1,11.52,9.47s-3.77,9.47-11.52,9.47Z" fill="url(#f)"/><path d="m727.6,2.34l-45.19,103.37-19.97-29.35c11.74-7.01,18.16-18.62,18.16-32.98,0-24.93-19.26-41.04-49.07-41.04h-51.7v107.2h39.46v-25.7h5.52l17.37,25.7h79.14l6.86-17.81h35.4l6.86,17.81h41.16L764.74,2.34h-37.14Zm-82.77,102.2l-17.37-25.7h-13.17v25.7h-29.46V7.34h46.7c27.18,0,44.07,13.81,44.07,36.04,0,13.56-6.19,23.9-17.91,29.89l-2.52,1.29,20.4,29.97h-30.74Zm129.04,0l-6.86-17.81h-42.27l-6.86,17.81h-29.5l42.49-97.2h30.6l42.49,97.2h-30.09Z" fill="url(#g)"/><path d="m732.31,66.9h27.15l-13.57-35.13-13.57,35.13Zm7.29-5l6.28-16.26,6.28,16.26h-12.56Z" fill="url(#h)"/><path d="m939.43,2.34h-32.24l-31.02,52.12-31.86-52.12h-32.23v107.2h36.39v-38.7l18.3,29.5h18l18.33-30.86.25,40.06h36.38l-.3-107.2Zm-31.11,102.2l-.33-53.08-26.06,43.89h-12.37l-26.08-42.04v51.24h-26.39V7.34h24.42l34.72,56.8,33.8-56.8h24.41l.28,97.2h-26.4Z" fill="url(#b)"/></svg>