<?xml version="1.0" encoding="utf-8"?>
<!-- Generator: Adobe Illustrator 27.3.1, SVG Export Plug-In . SVG Version: 6.00 Build 0)  -->
<svg version="1.1" id="a" xmlns="http://www.w3.org/2000/svg" xmlns:xlink="http://www.w3.org/1999/xlink" x="0px" y="0px"
	 viewBox="0 0 1202 114.6" style="enable-background:new 0 0 1202 114.6;" xml:space="preserve">
<style type="text/css">
	.st0{fill:url(#SVGID_1_);}
	.st1{fill:url(#SVGID_00000062190813882516282010000015912759832928330940_);}
	.st2{fill:url(#SVGID_00000065760322821200400060000005053350681875298698_);}
	.st3{fill:url(#SVGID_00000132051495032735895570000011388005361260701824_);}
	.st4{fill:url(#SVGID_00000145746608342179623810000009692117291252254342_);}
	.st5{fill:url(#SVGID_00000042710691312252538810000000976624854278179263_);}
	.st6{fill:url(#SVGID_00000010277436194884551910000016204589164956568706_);}
	.st7{fill:url(#SVGID_00000057139618894769556820000017303615918369279364_);}
	.st8{fill:url(#SVGID_00000136394195624198578600000014797145025078458506_);}
	.st9{fill:url(#SVGID_00000138551577085432111510000011740360350041865660_);}
	.st10{fill:url(#SVGID_00000170996426369246473540000011190136935991949486_);}
	.st11{fill:url(#SVGID_00000075847527851786726910000007981815863212747702_);}
	.st12{fill:url(#SVGID_00000031172974013226294870000003461665912746107015_);}
</style>
<g>
	<linearGradient id="SVGID_1_" gradientUnits="userSpaceOnUse" x1="7.2128" y1="59.7432" x2="1185.2446" y2="59.7432">
		<stop  offset="0" style="stop-color:#0B6AEA"/>
		<stop  offset="0.15" style="stop-color:#9B51E0"/>
		<stop  offset="0.31" style="stop-color:#EB5757"/>
		<stop  offset="0.44" style="stop-color:#B38E74"/>
		<stop  offset="0.58" style="stop-color:#5F9261"/>
		<stop  offset="0.72" style="stop-color:#219653"/>
		<stop  offset="0.86" style="stop-color:#F2994A"/>
		<stop  offset="1" style="stop-color:#7107D4"/>
	</linearGradient>
	<path class="st0" d="M47.8,8.6H10v102.3h81.7V80.5H47.8V8.6z M86.7,85.5v20.4H15V13.6h27.8v71.9H86.7z"/>
	
		<linearGradient id="SVGID_00000096060504992505184290000011014176827104913037_" gradientUnits="userSpaceOnUse" x1="7.2128" y1="59.7432" x2="1185.2446" y2="59.7432">
		<stop  offset="0" style="stop-color:#0B6AEA"/>
		<stop  offset="0.15" style="stop-color:#9B51E0"/>
		<stop  offset="0.31" style="stop-color:#EB5757"/>
		<stop  offset="0.44" style="stop-color:#B38E74"/>
		<stop  offset="0.58" style="stop-color:#5F9261"/>
		<stop  offset="0.72" style="stop-color:#219653"/>
		<stop  offset="0.86" style="stop-color:#F2994A"/>
		<stop  offset="1" style="stop-color:#7107D4"/>
	</linearGradient>
	<path style="fill:url(#SVGID_00000096060504992505184290000011014176827104913037_);" d="M133,73.4h41.1V44.7H133v-6.4h46.8V8.6
		H95.7v102.3h85.9V81.2H133V73.4z M176.6,86.2v19.7h-75.9V13.6h74.1v19.7H128v16.4h41.1v18.6H128v17.8H176.6z"/>
	
		<linearGradient id="SVGID_00000067925202575129982540000001369789399748827305_" gradientUnits="userSpaceOnUse" x1="7.2128" y1="59.7432" x2="1185.2446" y2="59.7432">
		<stop  offset="0" style="stop-color:#0B6AEA"/>
		<stop  offset="0.15" style="stop-color:#9B51E0"/>
		<stop  offset="0.31" style="stop-color:#EB5757"/>
		<stop  offset="0.44" style="stop-color:#B38E74"/>
		<stop  offset="0.58" style="stop-color:#5F9261"/>
		<stop  offset="0.72" style="stop-color:#219653"/>
		<stop  offset="0.86" style="stop-color:#F2994A"/>
		<stop  offset="1" style="stop-color:#7107D4"/>
	</linearGradient>
	<path style="fill:url(#SVGID_00000067925202575129982540000001369789399748827305_);" d="M181.9,39h28.5v71.9h37.8V39h28.5V8.6
		h-94.8V39z M186.9,13.6h84.8V34h-28.5v71.9h-27.8V34h-28.5V13.6z"/>
	
		<linearGradient id="SVGID_00000041994296851234827850000004610316324801177507_" gradientUnits="userSpaceOnUse" x1="7.2128" y1="32.2198" x2="1185.2446" y2="32.2198">
		<stop  offset="0" style="stop-color:#0B6AEA"/>
		<stop  offset="0.15" style="stop-color:#9B51E0"/>
		<stop  offset="0.31" style="stop-color:#EB5757"/>
		<stop  offset="0.44" style="stop-color:#B38E74"/>
		<stop  offset="0.58" style="stop-color:#5F9261"/>
		<stop  offset="0.72" style="stop-color:#219653"/>
		<stop  offset="0.86" style="stop-color:#F2994A"/>
		<stop  offset="1" style="stop-color:#7107D4"/>
	</linearGradient>
	<path style="fill:url(#SVGID_00000041994296851234827850000004610316324801177507_);" d="M300.7,1.4c-12.3,0-20.8,8.3-20.8,20.3
		c0,7.3,3.1,13.2,8.6,16.7l-7.3,24.8h24.4l10.4-22.2c4.9-10.4,5.7-14.2,5.7-19.3C321.5,9.7,312.9,1.4,300.7,1.4z M311.3,38.8
		l-9.1,19.3h-14.5l6.6-22.3l-1.9-0.9c-4.9-2.3-7.6-7-7.6-13.2c0-9.1,6.4-15.3,15.8-15.3c9.5,0,15.8,6.1,15.8,15.3
		C316.5,25.8,316,28.8,311.3,38.8z"/>
	
		<linearGradient id="SVGID_00000073704303628654003790000008904561025681286023_" gradientUnits="userSpaceOnUse" x1="7.2128" y1="59.743" x2="1185.2446" y2="59.743">
		<stop  offset="0" style="stop-color:#0B6AEA"/>
		<stop  offset="0.15" style="stop-color:#9B51E0"/>
		<stop  offset="0.31" style="stop-color:#EB5757"/>
		<stop  offset="0.44" style="stop-color:#B38E74"/>
		<stop  offset="0.58" style="stop-color:#5F9261"/>
		<stop  offset="0.72" style="stop-color:#219653"/>
		<stop  offset="0.86" style="stop-color:#F2994A"/>
		<stop  offset="1" style="stop-color:#7107D4"/>
	</linearGradient>
	<path style="fill:url(#SVGID_00000073704303628654003790000008904561025681286023_);" d="M373.5,45c-6.3-1.3-14.1-2.8-14.1-5
		c0-3.3,7.1-3.6,10.1-3.6c8.1,0,16.9,2.3,26,7l2.4,1.2l11.8-28.3l-1.9-1.1c-10-5.6-23.8-8.8-37.9-8.8c-29,0-47.8,13.9-47.8,35.3
		c0,25,23.7,29.9,39.3,33.2c6.8,1.4,14.5,3,14.5,5.5c0,2.5-7.1,2.8-10.1,2.8c-10.1,0-21.9-3.3-30.8-8.5l-2.4-1.4l-12.6,28.5l1.9,1.1
		c10.3,6.3,27.4,10.4,43.7,10.4c35.3,0,47.8-19,47.8-35.3C413.2,52.9,389.3,48.2,373.5,45z M365.4,108.1c-14.5,0-29.5-3.3-39.2-8.6
		l8.5-19.3c9.3,4.9,20.9,7.9,30.9,7.9c4.1,0,15.1,0,15.1-7.8c0-6.5-8.1-8.2-18.4-10.4c-15.8-3.3-35.4-7.4-35.4-28.3
		c0-18.4,16.8-30.3,42.8-30.3c12.4,0,24.5,2.6,33.5,7.1l-8,19.2c-9-4.2-17.6-6.3-25.8-6.3c-12.5,0-15.1,4.7-15.1,8.6
		c0,6.3,8,7.9,18.2,9.9c15.9,3.2,35.6,7.1,35.6,27.9C408.2,96.2,391.4,108.1,365.4,108.1z"/>
	
		<linearGradient id="SVGID_00000154402520669988503080000015912725662162830750_" gradientUnits="userSpaceOnUse" x1="7.2128" y1="59.743" x2="1185.2446" y2="59.743">
		<stop  offset="0" style="stop-color:#0B6AEA"/>
		<stop  offset="0.15" style="stop-color:#9B51E0"/>
		<stop  offset="0.31" style="stop-color:#EB5757"/>
		<stop  offset="0.44" style="stop-color:#B38E74"/>
		<stop  offset="0.58" style="stop-color:#5F9261"/>
		<stop  offset="0.72" style="stop-color:#219653"/>
		<stop  offset="0.86" style="stop-color:#F2994A"/>
		<stop  offset="1" style="stop-color:#7107D4"/>
	</linearGradient>
	<path style="fill:url(#SVGID_00000154402520669988503080000015912725662162830750_);" d="M533.4,71.1c-5.6,7.1-11.8,10.4-19.3,10.4
		c-12.3,0-20.3-8.6-20.3-21.8c0-13.3,8-21.8,20.3-21.8c7.6,0,13.7,3.3,19.3,10.4l1.6,2.1l24.4-21.8l-1.4-1.8
		c-10.3-13.4-26-20.4-45.6-20.4c-32.9,0-56.7,22.4-56.7,53.4s23.9,53.4,56.7,53.4c19.6,0,35.4-7.1,45.6-20.4l1.4-1.8L535.1,69
		L533.4,71.1z M552.7,91.4c-9.3,10.9-23.1,16.7-40.2,16.7c-30,0-51.7-20.3-51.7-48.4c0-28,21.7-48.4,51.7-48.4
		c17.1,0,30.9,5.8,40.2,16.7l-17,15.2c-6.2-6.9-13.2-10.3-21.5-10.3c-15.1,0-25.3,10.8-25.3,26.8s10.2,26.8,25.3,26.8
		c8.3,0,15.4-3.4,21.5-10.3L552.7,91.4z"/>
	
		<linearGradient id="SVGID_00000072969931775375620220000005327490880377337265_" gradientUnits="userSpaceOnUse" x1="7.2128" y1="59.743" x2="1185.2446" y2="59.743">
		<stop  offset="0" style="stop-color:#0B6AEA"/>
		<stop  offset="0.15" style="stop-color:#9B51E0"/>
		<stop  offset="0.31" style="stop-color:#EB5757"/>
		<stop  offset="0.44" style="stop-color:#B38E74"/>
		<stop  offset="0.58" style="stop-color:#5F9261"/>
		<stop  offset="0.72" style="stop-color:#219653"/>
		<stop  offset="0.86" style="stop-color:#F2994A"/>
		<stop  offset="1" style="stop-color:#7107D4"/>
	</linearGradient>
	<path style="fill:url(#SVGID_00000072969931775375620220000005327490880377337265_);" d="M614.5,6.4c-33.3,0-57.4,22.4-57.4,53.4
		s24.1,53.4,57.4,53.4s57.4-22.4,57.4-53.4S647.7,6.4,614.5,6.4z M614.5,108.1c-30.4,0-52.4-20.3-52.4-48.4c0-28,22-48.4,52.4-48.4
		s52.4,20.3,52.4,48.4C666.9,87.8,644.8,108.1,614.5,108.1z"/>
	
		<linearGradient id="SVGID_00000017502582580082575830000004919598731749855907_" gradientUnits="userSpaceOnUse" x1="7.2128" y1="59.7432" x2="1185.2446" y2="59.7432">
		<stop  offset="0" style="stop-color:#0B6AEA"/>
		<stop  offset="0.15" style="stop-color:#9B51E0"/>
		<stop  offset="0.31" style="stop-color:#EB5757"/>
		<stop  offset="0.44" style="stop-color:#B38E74"/>
		<stop  offset="0.58" style="stop-color:#5F9261"/>
		<stop  offset="0.72" style="stop-color:#219653"/>
		<stop  offset="0.86" style="stop-color:#F2994A"/>
		<stop  offset="1" style="stop-color:#7107D4"/>
	</linearGradient>
	<path style="fill:url(#SVGID_00000017502582580082575830000004919598731749855907_);" d="M614.5,32.9c-14.3,0-24.3,11-24.3,26.8
		c0,15.8,10,26.8,24.3,26.8c14.3,0,24.3-11,24.3-26.8C638.8,43.9,628.8,32.9,614.5,32.9z M614.5,81.6c-11.4,0-19.3-9-19.3-21.8
		s7.9-21.8,19.3-21.8s19.3,9,19.3,21.8S625.8,81.6,614.5,81.6z"/>
	
		<linearGradient id="SVGID_00000144304290044505024290000006545282861034176695_" gradientUnits="userSpaceOnUse" x1="7.2128" y1="59.7432" x2="1185.2446" y2="59.7432">
		<stop  offset="0" style="stop-color:#0B6AEA"/>
		<stop  offset="0.15" style="stop-color:#9B51E0"/>
		<stop  offset="0.31" style="stop-color:#EB5757"/>
		<stop  offset="0.44" style="stop-color:#B38E74"/>
		<stop  offset="0.58" style="stop-color:#5F9261"/>
		<stop  offset="0.72" style="stop-color:#219653"/>
		<stop  offset="0.86" style="stop-color:#F2994A"/>
		<stop  offset="1" style="stop-color:#7107D4"/>
	</linearGradient>
	<path style="fill:url(#SVGID_00000144304290044505024290000006545282861034176695_);" d="M742.8,48.4L709.5,8.6h-30.6v102.3h37
		V71.1l33.3,39.8h30.6V8.6h-37V48.4z M747.8,13.6h27v92.3h-23.3l-40.6-48.6v48.6h-27V13.6h23.3l40.6,48.6V13.6z"/>
	
		<linearGradient id="SVGID_00000139979009464915701020000003834373091025993148_" gradientUnits="userSpaceOnUse" x1="7.2128" y1="59.7432" x2="1185.2446" y2="59.7432">
		<stop  offset="0" style="stop-color:#0B6AEA"/>
		<stop  offset="0.15" style="stop-color:#9B51E0"/>
		<stop  offset="0.31" style="stop-color:#EB5757"/>
		<stop  offset="0.44" style="stop-color:#B38E74"/>
		<stop  offset="0.58" style="stop-color:#5F9261"/>
		<stop  offset="0.72" style="stop-color:#219653"/>
		<stop  offset="0.86" style="stop-color:#F2994A"/>
		<stop  offset="1" style="stop-color:#7107D4"/>
	</linearGradient>
	<path style="fill:url(#SVGID_00000139979009464915701020000003834373091025993148_);" d="M854.5,48.4L821.2,8.6h-30.6v102.3h37
		V71.1l33.3,39.8h30.6V8.6h-37V48.4z M859.5,13.6h27v92.3h-23.3l-40.6-48.6v48.6h-27V13.6h23.3l40.6,48.6V13.6z"/>
	
		<linearGradient id="SVGID_00000090280654519246668150000012953289762065140925_" gradientUnits="userSpaceOnUse" x1="7.2128" y1="59.7432" x2="1185.2446" y2="59.7432">
		<stop  offset="0" style="stop-color:#0B6AEA"/>
		<stop  offset="0.15" style="stop-color:#9B51E0"/>
		<stop  offset="0.31" style="stop-color:#EB5757"/>
		<stop  offset="0.44" style="stop-color:#B38E74"/>
		<stop  offset="0.58" style="stop-color:#5F9261"/>
		<stop  offset="0.72" style="stop-color:#219653"/>
		<stop  offset="0.86" style="stop-color:#F2994A"/>
		<stop  offset="1" style="stop-color:#7107D4"/>
	</linearGradient>
	<path style="fill:url(#SVGID_00000090280654519246668150000012953289762065140925_);" d="M939.6,73.4h41.1V44.7h-41.1v-6.4h46.8
		V8.6h-84.1v102.3h85.9V81.2h-48.7V73.4z M983.2,86.2v19.7h-75.9V13.6h74.1v19.7h-46.8v16.4h41.1v18.6h-41.1v17.8H983.2z"/>
	
		<linearGradient id="SVGID_00000160174855941752788240000003584339652192399765_" gradientUnits="userSpaceOnUse" x1="7.2128" y1="59.743" x2="1185.2446" y2="59.743">
		<stop  offset="0" style="stop-color:#0B6AEA"/>
		<stop  offset="0.15" style="stop-color:#9B51E0"/>
		<stop  offset="0.31" style="stop-color:#EB5757"/>
		<stop  offset="0.44" style="stop-color:#B38E74"/>
		<stop  offset="0.58" style="stop-color:#5F9261"/>
		<stop  offset="0.72" style="stop-color:#219653"/>
		<stop  offset="0.86" style="stop-color:#F2994A"/>
		<stop  offset="1" style="stop-color:#7107D4"/>
	</linearGradient>
	<path style="fill:url(#SVGID_00000160174855941752788240000003584339652192399765_);" d="M1050.4,37.9c7.6,0,13.7,3.3,19.3,10.4
		l1.6,2.1l24.4-21.8l-1.4-1.8c-10.3-13.4-26-20.4-45.6-20.4c-32.9,0-56.7,22.4-56.7,53.4s23.9,53.4,56.7,53.4
		c19.6,0,35.4-7.1,45.6-20.4l1.4-1.8L1071.3,69l-1.6,2.1c-5.6,7.1-11.8,10.4-19.3,10.4c-12.3,0-20.3-8.6-20.3-21.8
		C1030.1,46.5,1038,37.9,1050.4,37.9z M1025.1,59.7c0,16,10.2,26.8,25.3,26.8c8.3,0,15.4-3.4,21.5-10.3l17,15.2
		c-9.3,10.9-23.1,16.7-40.2,16.7c-30,0-51.7-20.3-51.7-48.4c0-28,21.7-48.4,51.7-48.4c17.1,0,30.9,5.8,40.2,16.7l-17,15.2
		c-6.2-6.9-13.2-10.3-21.5-10.3C1035.2,32.9,1025.1,43.7,1025.1,59.7z"/>
	
		<linearGradient id="SVGID_00000026159099923621307620000008593450811846258836_" gradientUnits="userSpaceOnUse" x1="7.2128" y1="59.7432" x2="1185.2446" y2="59.7432">
		<stop  offset="0" style="stop-color:#0B6AEA"/>
		<stop  offset="0.15" style="stop-color:#9B51E0"/>
		<stop  offset="0.31" style="stop-color:#EB5757"/>
		<stop  offset="0.44" style="stop-color:#B38E74"/>
		<stop  offset="0.58" style="stop-color:#5F9261"/>
		<stop  offset="0.72" style="stop-color:#219653"/>
		<stop  offset="0.86" style="stop-color:#F2994A"/>
		<stop  offset="1" style="stop-color:#7107D4"/>
	</linearGradient>
	<path style="fill:url(#SVGID_00000026159099923621307620000008593450811846258836_);" d="M1097.2,8.6V39h28.5v71.9h37.8V39h28.5
		V8.6H1097.2z M1187,34h-28.5v71.9h-27.8V34h-28.5V13.6h84.8V34z"/>
</g>
</svg>
