<?xml version="1.0" encoding="UTF-8"?>
<svg id="a" xmlns="http://www.w3.org/2000/svg" xmlns:xlink="http://www.w3.org/1999/xlink"
    viewBox="0 0 733.09 111.87">
    <defs>
        <linearGradient id="b" x1="-1.6" y1="55.93" x2="725.96" y2="55.93"
            gradientUnits="userSpaceOnUse">
            <stop offset="0" stop-color="#0b6aea" />
            <stop offset=".15" stop-color="#9b51e0" />
            <stop offset=".31" stop-color="#eb5757" />
            <stop offset=".44" stop-color="#b38e74" />
            <stop offset=".58" stop-color="#5f9261" />
            <stop offset=".72" stop-color="#219653" />
            <stop offset=".86" stop-color="#f2994a" />
            <stop offset="1" stop-color="#7107d4" />
        </linearGradient>
        <linearGradient id="c" y1="43.38" y2="43.38" xlink:href="#b" />
        <linearGradient id="d" y1="43.38" y2="43.38" xlink:href="#b" />
        <linearGradient id="e" x1="-1.63" x2="725.93" xlink:href="#b" />
    </defs>
    <path
        d="m51.7,2.34H0v107.2h39.46v-25.11h12.25c29.81,0,49.07-16.11,49.07-41.04S81.51,2.34,51.7,2.34Zm0,77.09h-17.25v25.11H5V7.34h46.7c27.19,0,44.07,13.81,44.07,36.04s-16.89,36.04-44.07,36.04Z"
        fill="url(#b)" />
    <path
        d="m49.51,28.91h-15.06v28.94h15.06c10.5,0,16.52-5.27,16.52-14.47s-6.02-14.47-16.52-14.47Zm0,23.94h-10.06v-18.94h10.06c7.75,0,11.52,3.1,11.52,9.47s-3.77,9.47-11.52,9.47Z"
        fill="url(#c)" />
    <path
        d="m156.53,28.91h-15.06v28.94h15.06c10.5,0,16.52-5.27,16.52-14.47s-6.02-14.47-16.52-14.47Zm0,23.94h-10.06v-18.94h10.06c7.75,0,11.52,3.1,11.52,9.47s-3.77,9.47-11.52,9.47Z"
        fill="url(#d)" />
    <path
        d="m207.79,43.38c0-24.93-19.26-41.04-49.07-41.04h-51.7v107.2h39.46v-25.7h5.52l17.37,25.7h42.84l-22.58-33.18c11.74-7.01,18.16-18.62,18.16-32.98Zm-5.04,61.15h-30.74l-17.37-25.7h-13.17v25.7h-29.46V7.34h46.7c27.18,0,44.07,13.81,44.07,36.04,0,13.56-6.19,23.9-17.91,29.89l-2.52,1.29,20.4,29.97Z"
        fill="url(#b)" />
    <path
        d="m271.87,0c-34.86,0-60.17,23.52-60.17,55.93s25.3,55.93,60.17,55.93,60.17-23.52,60.17-55.93S306.73,0,271.87,0Zm0,106.87c-31.97,0-55.17-21.42-55.17-50.93s23.2-50.93,55.17-50.93,55.17,21.42,55.17,50.93-23.2,50.93-55.17,50.93Z"
        fill="url(#b)" />
    <path
        d="m271.87,27.89c-14.97,0-25.42,11.53-25.42,28.05s10.45,28.05,25.42,28.05,25.42-11.53,25.42-28.05-10.45-28.05-25.42-28.05Zm0,51.1c-12.02,0-20.42-9.48-20.42-23.05s8.4-23.05,20.42-23.05,20.42,9.48,20.42,23.05-8.4,23.05-20.42,23.05Z"
        fill="url(#b)" />
    <path
        d="m396.7,32.89c7.97,0,14.45,3.5,20.37,11.02l1.65,2.09,25.47-22.73-1.41-1.84c-10.74-14.01-27.28-21.42-47.83-21.42-34.44,0-59.44,23.52-59.44,55.93s25,55.93,59.44,55.93c20.55,0,37.08-7.41,47.83-21.42l1.41-1.84-25.47-22.73-1.65,2.09c-5.93,7.52-12.4,11.02-20.37,11.02-13.03,0-21.44-9.05-21.44-23.05s8.42-23.05,21.44-23.05Zm-26.44,23.05c0,16.78,10.63,28.05,26.44,28.05,8.72,0,16.14-3.57,22.6-10.89l18.05,16.11c-9.78,11.56-24.39,17.66-42.4,17.66-31.54,0-54.44-21.42-54.44-50.93s22.9-50.93,54.44-50.93c18.02,0,32.62,6.09,42.4,17.66l-18.05,16.11c-6.46-7.32-13.88-10.89-22.6-10.89-15.82,0-26.44,11.27-26.44,28.05Z"
        fill="url(#b)" />
    <path
        d="m487.09,70.11h43.21v-29.82h-43.21v-6.97h49.2V2.34h-88.07v107.2h89.97v-30.99h-51.1v-8.43Zm46.1,13.43v20.99h-79.97V7.34h78.07v20.99h-49.2v16.97h43.21v19.82h-43.21v18.43h51.1Z"
        fill="url(#e)" />
    <path
        d="m595.61,40.59c-6.66-1.33-14.94-2.98-14.94-5.39,0-3.54,7.54-3.92,10.79-3.92,8.56,0,17.76,2.46,27.34,7.32l2.41,1.22,12.25-29.51-1.94-1.09c-10.44-5.86-24.93-9.23-39.77-9.23-30.43,0-50.09,14.51-50.09,36.96,0,26.14,24.8,31.3,41.22,34.72,7.16,1.49,15.28,3.18,15.28,5.87s-6.76,3.05-10.79,3.05c-10.63,0-23.06-3.45-32.45-9l-2.42-1.43-13.12,29.68,1.86,1.14c10.76,6.61,28.75,10.88,45.84,10.88,36.97,0,50.09-19.91,50.09-36.96,0-26.03-25.01-31.02-41.56-34.32Zm-8.54,66.28c-15.25,0-31.15-3.52-41.33-9.05l9.08-20.55c9.77,5.17,21.98,8.32,32.55,8.32,4.32,0,15.79,0,15.79-8.05,0-6.75-8.5-8.52-19.26-10.76-16.59-3.45-37.24-7.75-37.24-29.82,0-19.41,17.7-31.96,45.09-31.96,13.09,0,25.82,2.73,35.36,7.54l-8.48,20.41c-9.43-4.43-18.56-6.68-27.18-6.68-13.05,0-15.79,4.85-15.79,8.92,0,6.51,8.37,8.18,18.96,10.29,16.72,3.34,37.54,7.49,37.54,29.42,0,19.41-17.7,31.96-45.09,31.96Z"
        fill="url(#b)" />
    <path
        d="m691.54,40.59c-6.66-1.33-14.94-2.98-14.94-5.39,0-3.54,7.54-3.92,10.79-3.92,8.56,0,17.76,2.46,27.34,7.32l2.41,1.22,12.25-29.51-1.94-1.09c-10.44-5.86-24.93-9.23-39.77-9.23-30.43,0-50.09,14.51-50.09,36.96,0,26.14,24.8,31.3,41.22,34.72,7.16,1.49,15.28,3.18,15.28,5.87s-6.76,3.05-10.79,3.05c-10.63,0-23.06-3.45-32.45-9l-2.42-1.43-13.12,29.68,1.86,1.14c10.76,6.61,28.75,10.88,45.84,10.88,36.97,0,50.09-19.91,50.09-36.96,0-26.03-25.01-31.02-41.56-34.32Zm-8.54,66.28c-15.25,0-31.15-3.52-41.33-9.05l9.08-20.55c9.77,5.17,21.98,8.32,32.55,8.32,4.32,0,15.79,0,15.79-8.05,0-6.75-8.5-8.52-19.26-10.76-16.59-3.45-37.24-7.75-37.24-29.82,0-19.41,17.7-31.96,45.09-31.96,13.09,0,25.82,2.73,35.36,7.54l-8.48,20.41c-9.43-4.43-18.56-6.68-27.18-6.68-13.05,0-15.79,4.85-15.79,8.92,0,6.51,8.37,8.18,18.96,10.29,16.72,3.34,37.54,7.49,37.54,29.42,0,19.41-17.7,31.96-45.09,31.96Z"
        fill="url(#b)" />
</svg>