<?xml version="1.0" encoding="utf-8"?>
<!-- Generator: Adobe Illustrator 27.2.0, SVG Export Plug-In . SVG Version: 6.00 Build 0)  -->
<svg version="1.1" id="a" xmlns="http://www.w3.org/2000/svg" xmlns:xlink="http://www.w3.org/1999/xlink" x="0px" y="0px"
	 viewBox="0 0 1126.3 106.2" style="enable-background:new 0 0 1126.3 106.2;" xml:space="preserve">
<style type="text/css">
	.st0{fill:url(#SVGID_1_);}
	.st1{fill:url(#SVGID_00000116198146977692167430000017719631802021368472_);}
	.st2{fill:url(#SVGID_00000008827680941262414280000006611552403889747645_);}
	.st3{fill:url(#SVGID_00000021102627012408038870000007367184648323125667_);}
	.st4{fill:url(#SVGID_00000168829461980341159240000001769211047670378919_);}
	.st5{fill:url(#SVGID_00000137826092884872412440000004900692022675781026_);}
	.st6{fill:url(#SVGID_00000103255151282223584820000017702310415512824754_);}
	.st7{fill:url(#SVGID_00000067201190872942701990000013632703697600578448_);}
	.st8{fill:url(#SVGID_00000074425560965720454540000000271294128183213194_);}
	.st9{fill:url(#SVGID_00000155122126686118307110000014629677807556127366_);}
	.st10{fill:url(#SVGID_00000160170363781620642850000003803194598412853402_);}
</style>
<g>
	<g>
		<linearGradient id="SVGID_1_" gradientUnits="userSpaceOnUse" x1="85.3333" y1="53.1" x2="993.2002" y2="53.1">
			<stop  offset="0" style="stop-color:#0B6AEA"/>
			<stop  offset="0.15" style="stop-color:#9B51E0"/>
			<stop  offset="0.31" style="stop-color:#EB5757"/>
			<stop  offset="0.44" style="stop-color:#B38E74"/>
			<stop  offset="0.58" style="stop-color:#5F9261"/>
			<stop  offset="0.72" style="stop-color:#219653"/>
			<stop  offset="0.86" style="stop-color:#F2994A"/>
			<stop  offset="1" style="stop-color:#7107D4"/>
		</linearGradient>
		<path class="st0" d="M128.9,104.6c-15.9,0-32-3.8-42-10l-2.2-1.4L97.2,65l2.9,1.7c8.4,5,19.6,8.1,29.1,8.1c6.3,0,9.1-1,9.1-2
			c0-1.8-8-3.5-13.3-4.6c-15.1-3.1-38-7.9-38-32.2c0-15.8,12.1-34.3,46.2-34.3c13.6,0,26.9,3.1,36.5,8.5l2.3,1.3l-11.7,28.1
			l-2.9-1.5c-8.6-4.4-16.8-6.6-24.5-6.6c-5.6,0-9.1,1.1-9.1,2.8c0,1.6,8.4,3.3,13,4.2c15.3,3,38.3,7.6,38.3,31.9
			c0,9.6-4.2,18.3-12,24.4C155,101.2,143.1,104.6,128.9,104.6z M92.3,90.8c9.2,4.8,23.1,7.8,36.6,7.8c24.4,0,40.2-11.1,40.2-28.3
			c0-19.3-18.6-23-33.5-26c-9.9-2-17.8-3.6-17.8-10.1c0-4,2.6-8.8,15.1-8.8c7.7,0,15.9,2,24.3,5.8l7.1-17.2
			c-8.5-4.1-19.7-6.5-31.2-6.5C108.4,7.6,93,18.4,93,35.9c0,19.4,18.4,23.3,33.2,26.4c9.7,2,18.1,3.8,18.1,10.5c0,8-10.9,8-15.1,8
			c-9.5,0-20.3-2.7-29.2-7.3L92.3,90.8z"/>
	</g>
	<g>
		
			<linearGradient id="SVGID_00000174563763016967108160000016626667156671346817_" gradientUnits="userSpaceOnUse" x1="85.3333" y1="53.1002" x2="993.2002" y2="53.1002">
			<stop  offset="0" style="stop-color:#0B6AEA"/>
			<stop  offset="0.15" style="stop-color:#9B51E0"/>
			<stop  offset="0.31" style="stop-color:#EB5757"/>
			<stop  offset="0.44" style="stop-color:#B38E74"/>
			<stop  offset="0.58" style="stop-color:#5F9261"/>
			<stop  offset="0.72" style="stop-color:#219653"/>
			<stop  offset="0.86" style="stop-color:#F2994A"/>
			<stop  offset="1" style="stop-color:#7107D4"/>
		</linearGradient>
		<path style="fill:url(#SVGID_00000174563763016967108160000016626667156671346817_);" d="M215.7,102.5h-37.3V3.7h47.7
			c27.5,0,45.3,14.9,45.3,38s-17.8,38-45.3,38h-10.4V102.5z M184.4,96.5h25.3V73.7h16.4c24.2,0,39.3-12.3,39.3-32
			c0-19.7-15-32-39.3-32h-41.7V96.5z M224.1,55.6h-14.4V27.8h14.4c10,0,15.7,5.1,15.7,13.9S234.1,55.6,224.1,55.6z M215.7,49.6h8.4
			c8.7,0,9.7-4.5,9.7-7.9s-1-7.9-9.7-7.9h-8.4V49.6z"/>
	</g>
	<g>
		
			<linearGradient id="SVGID_00000155138586249275289110000008725583009460608659_" gradientUnits="userSpaceOnUse" x1="85.3333" y1="53.1002" x2="993.2002" y2="53.1002">
			<stop  offset="0" style="stop-color:#0B6AEA"/>
			<stop  offset="0.15" style="stop-color:#9B51E0"/>
			<stop  offset="0.31" style="stop-color:#EB5757"/>
			<stop  offset="0.44" style="stop-color:#B38E74"/>
			<stop  offset="0.58" style="stop-color:#5F9261"/>
			<stop  offset="0.72" style="stop-color:#219653"/>
			<stop  offset="0.86" style="stop-color:#F2994A"/>
			<stop  offset="1" style="stop-color:#7107D4"/>
		</linearGradient>
		<path style="fill:url(#SVGID_00000155138586249275289110000008725583009460608659_);" d="M358.7,102.5h-83.1V3.7h81.4v29.6h-44.7
			v4.9h39.2v28.5h-39.2v6.2h46.4V102.5z M281.5,96.5h71.1V78.9h-46.4V60.7h39.2V44.2h-39.2V27.3h44.7V9.7h-69.4V96.5z"/>
	</g>
	<g>
		
			<linearGradient id="SVGID_00000159442317224262492220000001130393208521277590_" gradientUnits="userSpaceOnUse" x1="85.3333" y1="53.1" x2="993.2002" y2="53.1">
			<stop  offset="0" style="stop-color:#0B6AEA"/>
			<stop  offset="0.15" style="stop-color:#9B51E0"/>
			<stop  offset="0.31" style="stop-color:#EB5757"/>
			<stop  offset="0.44" style="stop-color:#B38E74"/>
			<stop  offset="0.58" style="stop-color:#5F9261"/>
			<stop  offset="0.72" style="stop-color:#219653"/>
			<stop  offset="0.86" style="stop-color:#F2994A"/>
			<stop  offset="1" style="stop-color:#7107D4"/>
		</linearGradient>
		<path style="fill:url(#SVGID_00000159442317224262492220000001130393208521277590_);" d="M415.7,104.6
			c-31.7,0-54.7-21.7-54.7-51.5c0-29.8,23-51.5,54.7-51.5c18.9,0,34.1,6.8,44,19.7l1.7,2.2l-24.2,21.6l-2-2.5
			c-5.2-6.6-10.9-9.7-17.9-9.7c-11.6,0-18.7,7.7-18.7,20.2c0,12.5,7.2,20.2,18.7,20.2c7,0,12.7-3.1,17.9-9.7l2-2.5l24.2,21.6
			l-1.7,2.2C449.8,97.8,434.6,104.6,415.7,104.6z M415.7,7.6c-28.2,0-48.7,19.1-48.7,45.5c0,26.4,20.5,45.5,48.7,45.5
			c15.8,0,28.7-5.3,37.5-15.2l-15.3-13.7c-5.9,6.4-12.7,9.6-20.6,9.6c-14.8,0-24.7-10.5-24.7-26.2s9.9-26.2,24.7-26.2
			c7.9,0,14.7,3.1,20.6,9.6l15.3-13.7C444.4,12.8,431.5,7.6,415.7,7.6z"/>
	</g>
	<g>
		
			<linearGradient id="SVGID_00000181778178531647258070000005152813707114711178_" gradientUnits="userSpaceOnUse" x1="85.3333" y1="53.1002" x2="993.2002" y2="53.1002">
			<stop  offset="0" style="stop-color:#0B6AEA"/>
			<stop  offset="0.15" style="stop-color:#9B51E0"/>
			<stop  offset="0.31" style="stop-color:#EB5757"/>
			<stop  offset="0.44" style="stop-color:#B38E74"/>
			<stop  offset="0.58" style="stop-color:#5F9261"/>
			<stop  offset="0.72" style="stop-color:#219653"/>
			<stop  offset="0.86" style="stop-color:#F2994A"/>
			<stop  offset="1" style="stop-color:#7107D4"/>
		</linearGradient>
		<path style="fill:url(#SVGID_00000181778178531647258070000005152813707114711178_);" d="M500.6,102.5h-37.3V3.7h37.3V102.5z
			 M469.3,96.5h25.3V9.7h-25.3V96.5z"/>
	</g>
	<g>
		
			<linearGradient id="SVGID_00000011028345265885310440000004609049654679971473_" gradientUnits="userSpaceOnUse" x1="85.3333" y1="53.1002" x2="993.2002" y2="53.1002">
			<stop  offset="0" style="stop-color:#0B6AEA"/>
			<stop  offset="0.15" style="stop-color:#9B51E0"/>
			<stop  offset="0.31" style="stop-color:#EB5757"/>
			<stop  offset="0.44" style="stop-color:#B38E74"/>
			<stop  offset="0.58" style="stop-color:#5F9261"/>
			<stop  offset="0.72" style="stop-color:#219653"/>
			<stop  offset="0.86" style="stop-color:#F2994A"/>
			<stop  offset="1" style="stop-color:#7107D4"/>
		</linearGradient>
		<path style="fill:url(#SVGID_00000011028345265885310440000004609049654679971473_);" d="M619.1,102.5h-39l-6.2-16.2h-31.1
			l-6.2,16.2H498l43.2-98.8h34.7L619.1,102.5z M584.2,96.5h25.7L572,9.7h-26.8l-37.9,86.8h25.2l6.2-16.2H578L584.2,96.5z
			 M571.7,63.8h-26.8l13.4-34.6L571.7,63.8z M553.6,57.8h9.3l-4.6-12L553.6,57.8z"/>
	</g>
	<g>
		
			<linearGradient id="SVGID_00000130625385119906812550000006939118579688067263_" gradientUnits="userSpaceOnUse" x1="85.3333" y1="53.1002" x2="993.2002" y2="53.1002">
			<stop  offset="0" style="stop-color:#0B6AEA"/>
			<stop  offset="0.15" style="stop-color:#9B51E0"/>
			<stop  offset="0.31" style="stop-color:#EB5757"/>
			<stop  offset="0.44" style="stop-color:#B38E74"/>
			<stop  offset="0.58" style="stop-color:#5F9261"/>
			<stop  offset="0.72" style="stop-color:#219653"/>
			<stop  offset="0.86" style="stop-color:#F2994A"/>
			<stop  offset="1" style="stop-color:#7107D4"/>
		</linearGradient>
		<path style="fill:url(#SVGID_00000130625385119906812550000006939118579688067263_);" d="M695.7,102.5h-79.2V3.7h37.3v68.5h41.9
			V102.5z M622.5,96.5h67.2V78.2h-41.9V9.7h-25.3V96.5z"/>
	</g>
	<g>
		
			<linearGradient id="SVGID_00000026156356248141243340000013925730389225895042_" gradientUnits="userSpaceOnUse" x1="85.3333" y1="53.1002" x2="993.2002" y2="53.1002">
			<stop  offset="0" style="stop-color:#0B6AEA"/>
			<stop  offset="0.15" style="stop-color:#9B51E0"/>
			<stop  offset="0.31" style="stop-color:#EB5757"/>
			<stop  offset="0.44" style="stop-color:#B38E74"/>
			<stop  offset="0.58" style="stop-color:#5F9261"/>
			<stop  offset="0.72" style="stop-color:#219653"/>
			<stop  offset="0.86" style="stop-color:#F2994A"/>
			<stop  offset="1" style="stop-color:#7107D4"/>
		</linearGradient>
		<path style="fill:url(#SVGID_00000026156356248141243340000013925730389225895042_);" d="M735.5,102.5h-37.3V3.7h37.3V102.5z
			 M704.3,96.5h25.3V9.7h-25.3V96.5z"/>
	</g>
	<g>
		
			<linearGradient id="SVGID_00000074418565541090030540000007878762095899057827_" gradientUnits="userSpaceOnUse" x1="85.3333" y1="53.1" x2="993.2002" y2="53.1">
			<stop  offset="0" style="stop-color:#0B6AEA"/>
			<stop  offset="0.15" style="stop-color:#9B51E0"/>
			<stop  offset="0.31" style="stop-color:#EB5757"/>
			<stop  offset="0.44" style="stop-color:#B38E74"/>
			<stop  offset="0.58" style="stop-color:#5F9261"/>
			<stop  offset="0.72" style="stop-color:#219653"/>
			<stop  offset="0.86" style="stop-color:#F2994A"/>
			<stop  offset="1" style="stop-color:#7107D4"/>
		</linearGradient>
		<path style="fill:url(#SVGID_00000074418565541090030540000007878762095899057827_);" d="M782.2,104.6c-15.9,0-32-3.8-42-10
			l-2.2-1.4L750.5,65l2.9,1.7c8.4,5,19.6,8.1,29.1,8.1c6.3,0,9.1-1,9.1-2c0-1.8-8-3.5-13.3-4.6c-15.1-3.1-38-7.9-38-32.2
			c0-15.8,12.1-34.3,46.2-34.3c13.6,0,26.9,3.1,36.5,8.5l2.3,1.3l-11.7,28.1l-2.9-1.5c-8.6-4.4-16.8-6.6-24.5-6.6
			c-5.6,0-9.1,1.1-9.1,2.8c0,1.6,8.4,3.3,13,4.2c15.3,3,38.3,7.6,38.3,31.9c0,9.6-4.2,18.3-12,24.4
			C808.3,101.2,796.4,104.6,782.2,104.6z M745.7,90.8c9.2,4.8,23.1,7.8,36.6,7.8c24.4,0,40.2-11.1,40.2-28.3c0-19.3-18.6-23-33.5-26
			c-9.9-2-17.8-3.6-17.8-10.1c0-4,2.6-8.8,15.1-8.8c7.7,0,15.9,2,24.3,5.8l7.1-17.2c-8.5-4.1-19.7-6.5-31.2-6.5
			c-24.8,0-40.2,10.8-40.2,28.3c0,19.4,18.4,23.3,33.2,26.4c9.7,2,18.1,3.8,18.1,10.5c0,8-10.9,8-15.1,8c-9.5,0-20.3-2.7-29.2-7.3
			L745.7,90.8z"/>
	</g>
	<g>
		
			<linearGradient id="SVGID_00000064311611336852732680000000693348210538316675_" gradientUnits="userSpaceOnUse" x1="85.3333" y1="53.1002" x2="993.2002" y2="53.1002">
			<stop  offset="0" style="stop-color:#0B6AEA"/>
			<stop  offset="0.15" style="stop-color:#9B51E0"/>
			<stop  offset="0.31" style="stop-color:#EB5757"/>
			<stop  offset="0.44" style="stop-color:#B38E74"/>
			<stop  offset="0.58" style="stop-color:#5F9261"/>
			<stop  offset="0.72" style="stop-color:#219653"/>
			<stop  offset="0.86" style="stop-color:#F2994A"/>
			<stop  offset="1" style="stop-color:#7107D4"/>
		</linearGradient>
		<path style="fill:url(#SVGID_00000064311611336852732680000000693348210538316675_);" d="M887.8,102.5h-37.3V34h-27.2V3.7H915V34
			h-27.2V102.5z M856.5,96.5h25.3V28H909V9.7h-79.6V28h27.2V96.5z"/>
	</g>
	<g>
		
			<linearGradient id="SVGID_00000127020784557195553020000010596488440691539089_" gradientUnits="userSpaceOnUse" x1="85.3333" y1="53.1" x2="993.2002" y2="53.1">
			<stop  offset="0" style="stop-color:#0B6AEA"/>
			<stop  offset="0.15" style="stop-color:#9B51E0"/>
			<stop  offset="0.31" style="stop-color:#EB5757"/>
			<stop  offset="0.44" style="stop-color:#B38E74"/>
			<stop  offset="0.58" style="stop-color:#5F9261"/>
			<stop  offset="0.72" style="stop-color:#219653"/>
			<stop  offset="0.86" style="stop-color:#F2994A"/>
			<stop  offset="1" style="stop-color:#7107D4"/>
		</linearGradient>
		<path style="fill:url(#SVGID_00000127020784557195553020000010596488440691539089_);" d="M954.6,104.6c-15.9,0-32-3.8-42-10
			l-2.2-1.4L922.9,65l2.9,1.7c8.4,5,19.6,8.1,29.1,8.1c6.3,0,9.1-1,9.1-2c0-1.8-8-3.5-13.3-4.6c-15.1-3.1-38-7.9-38-32.2
			c0-15.8,12.1-34.3,46.2-34.3c13.6,0,26.9,3.1,36.5,8.5l2.3,1.3L986,39.5l-2.9-1.5c-8.6-4.4-16.8-6.6-24.5-6.6
			c-5.6,0-9.1,1.1-9.1,2.8c0,1.6,8.4,3.3,13,4.2c15.3,3,38.3,7.6,38.3,31.9c0,9.6-4.2,18.3-12,24.4
			C980.7,101.2,968.8,104.6,954.6,104.6z M918.1,90.8c9.2,4.8,23.1,7.8,36.6,7.8c24.4,0,40.2-11.1,40.2-28.3c0-19.3-18.6-23-33.5-26
			c-9.9-2-17.8-3.6-17.8-10.1c0-4,2.6-8.8,15.1-8.8c7.7,0,15.9,2,24.3,5.8l7.1-17.2c-8.5-4.1-19.7-6.5-31.2-6.5
			c-24.8,0-40.2,10.8-40.2,28.3c0,19.4,18.4,23.3,33.2,26.4c9.7,2,18.1,3.8,18.1,10.5c0,8-10.9,8-15.1,8c-9.5,0-20.3-2.7-29.2-7.3
			L918.1,90.8z"/>
	</g>
</g>
</svg>
